G04 #@! TF.FileFunction,Soldermask,Top*
%FSLAX46Y46*%
G04 Gerber Fmt 4.6, Leading zero omitted, Abs format (unit mm)*
G04 Created by KiCad (PCBNEW 4.0.2+dfsg1-stable) date Sat 10 Jun 2017 09:46:09 PM MDT*
%MOMM*%
G01*
G04 APERTURE LIST*
%ADD10C,0.100000*%
%ADD11C,2.100000*%
%ADD12R,1.150000X1.200000*%
%ADD13R,1.200000X1.150000*%
%ADD14R,1.000760X1.000760*%
%ADD15R,2.600000X2.600000*%
%ADD16R,3.600000X3.600000*%
%ADD17R,1.670000X0.958800*%
%ADD18R,0.958800X1.670000*%
%ADD19C,2.279600*%
%ADD20R,2.279600X2.279600*%
%ADD21C,2.900000*%
%ADD22C,4.400000*%
%ADD23C,2.200000*%
%ADD24R,0.800000X1.000000*%
%ADD25R,1.000000X0.800000*%
%ADD26R,3.800000X3.600000*%
%ADD27R,1.050000X1.460000*%
%ADD28R,1.300000X0.850000*%
%ADD29R,1.700000X4.850000*%
%ADD30R,3.450000X4.350000*%
%ADD31R,1.950000X5.100000*%
%ADD32R,3.700000X4.600000*%
%ADD33C,3.600000*%
%ADD34C,1.398220*%
G04 APERTURE END LIST*
D10*
D11*
X55300000Y-85200000D03*
X55300000Y-75800000D03*
X55300000Y-80500000D03*
D12*
X74800000Y-106200000D03*
X74800000Y-104700000D03*
D11*
X90500000Y-42900000D03*
X99900000Y-42900000D03*
X95200000Y-42900000D03*
D13*
X68800000Y-95300000D03*
X67300000Y-95300000D03*
D12*
X61300000Y-103750000D03*
X61300000Y-105250000D03*
D13*
X94550000Y-101500000D03*
X96050000Y-101500000D03*
X93800000Y-112500000D03*
X95300000Y-112500000D03*
D14*
X89920878Y-94612208D03*
X91419478Y-94612208D03*
X89920878Y-96612208D03*
X91419478Y-96612208D03*
X89920878Y-98612208D03*
X91419478Y-98612208D03*
X90949300Y-47900000D03*
X89450700Y-47900000D03*
X61300000Y-84100000D03*
X61300000Y-85598600D03*
D15*
X107100000Y-105700000D03*
D16*
X117300000Y-105700000D03*
X117300000Y-96500000D03*
D15*
X107100000Y-96500000D03*
D17*
X63808520Y-101408320D03*
X63808520Y-102208420D03*
X63808520Y-103008520D03*
X63808520Y-103808620D03*
X63808520Y-104606180D03*
X63808520Y-105406280D03*
X63808520Y-106206380D03*
X63808520Y-107006480D03*
D18*
X65302040Y-108500000D03*
X66102140Y-108500000D03*
X66902240Y-108500000D03*
X67702340Y-108500000D03*
X68499900Y-108500000D03*
X69300000Y-108500000D03*
X70100100Y-108500000D03*
X70900200Y-108500000D03*
D17*
X72393720Y-107006480D03*
X72393720Y-106206380D03*
X72393720Y-105406280D03*
X72393720Y-104606180D03*
X72393720Y-103808620D03*
X72393720Y-103008520D03*
X72393720Y-102208420D03*
X72393720Y-101408320D03*
D18*
X70900200Y-99914800D03*
X70100100Y-99914800D03*
X69300000Y-99914800D03*
X68499900Y-99914800D03*
X67702340Y-99914800D03*
X66902240Y-99914800D03*
X66102140Y-99914800D03*
X65302040Y-99914800D03*
D19*
X85920000Y-129740000D03*
X85920000Y-127200000D03*
X88460000Y-129740000D03*
X88460000Y-127200000D03*
X91000000Y-129740000D03*
X91000000Y-127200000D03*
D20*
X55300000Y-98400000D03*
D19*
X55300000Y-95860000D03*
X55300000Y-93320000D03*
X55300000Y-90780000D03*
D21*
X109344000Y-127448000D03*
X109344000Y-119948000D03*
X106144000Y-127448000D03*
X106144000Y-119948000D03*
D22*
X122444000Y-115208000D03*
X122444000Y-132208000D03*
X122474000Y-40274000D03*
D21*
X106144000Y-45024000D03*
X106144000Y-52524000D03*
X106144000Y-60024000D03*
X106144000Y-67524000D03*
X106144000Y-75024000D03*
X106144000Y-82524000D03*
X109344000Y-82524000D03*
X109344000Y-75024000D03*
X109344000Y-67524000D03*
X109344000Y-60024000D03*
X109344000Y-52524000D03*
X109344000Y-45024000D03*
D22*
X122474000Y-87274000D03*
D23*
X79300000Y-126200000D03*
X76800000Y-126200000D03*
X59300000Y-126200000D03*
X61800000Y-126200000D03*
X74300000Y-126200000D03*
X64300000Y-126200000D03*
X66800000Y-126200000D03*
X71800000Y-126200000D03*
X69300000Y-126200000D03*
D24*
X101300000Y-88500000D03*
X102200000Y-88500000D03*
X102200000Y-90000000D03*
X101300000Y-90000000D03*
D25*
X91300000Y-108050000D03*
X91300000Y-108950000D03*
D24*
X67700000Y-97400000D03*
X68600000Y-97400000D03*
X87319478Y-94612208D03*
X88219478Y-94612208D03*
X87319478Y-96612208D03*
X88219478Y-96612208D03*
X87319478Y-98612208D03*
X88219478Y-98612208D03*
X94200000Y-47900000D03*
X93300000Y-47900000D03*
D25*
X61300000Y-81200000D03*
X61300000Y-82100000D03*
D24*
X84850000Y-79500000D03*
X85750000Y-79500000D03*
X84850000Y-84500000D03*
X85750000Y-84500000D03*
X84850000Y-87900000D03*
X85750000Y-87900000D03*
X85750000Y-78000000D03*
X84850000Y-78000000D03*
X85750000Y-82950000D03*
X84850000Y-82950000D03*
X85750000Y-86400000D03*
X84850000Y-86400000D03*
D25*
X87300000Y-42400000D03*
X87300000Y-41500000D03*
D24*
X81300000Y-77200000D03*
X80400000Y-77200000D03*
D26*
X73300000Y-71700000D03*
D11*
X83300000Y-66650000D03*
X83300000Y-62900000D03*
X83300000Y-70400000D03*
D26*
X73300000Y-61600000D03*
X73300000Y-54800000D03*
D11*
X83300000Y-49750000D03*
X83300000Y-46000000D03*
X83300000Y-53500000D03*
D26*
X73300000Y-44700000D03*
D11*
X55200000Y-70500000D03*
X55200000Y-61100000D03*
X55200000Y-65800000D03*
X55300000Y-56000000D03*
X55300000Y-46600000D03*
X55300000Y-51300000D03*
D27*
X95166000Y-106700000D03*
X94216000Y-106700000D03*
X93266000Y-106700000D03*
X93266000Y-108900000D03*
X95166000Y-108900000D03*
D28*
X94475000Y-51865000D03*
X94475000Y-50595000D03*
X94475000Y-53135000D03*
D29*
X99950000Y-52500000D03*
D30*
X97750000Y-52500000D03*
D28*
X94475000Y-54405000D03*
D31*
X99950000Y-52500000D03*
D32*
X97750000Y-52500000D03*
D28*
X93275000Y-67865000D03*
X93275000Y-66595000D03*
X93275000Y-69135000D03*
D29*
X98750000Y-68500000D03*
D30*
X96550000Y-68500000D03*
D28*
X93275000Y-70405000D03*
D31*
X98750000Y-68500000D03*
D32*
X96550000Y-68500000D03*
D28*
X93275000Y-81015000D03*
X93275000Y-79745000D03*
X93275000Y-82285000D03*
D29*
X98750000Y-81650000D03*
D30*
X96550000Y-81650000D03*
D28*
X93275000Y-83555000D03*
D31*
X98750000Y-81650000D03*
D32*
X96550000Y-81650000D03*
D33*
X55400000Y-41500000D03*
X99100000Y-60400000D03*
X53300000Y-132600000D03*
X101000000Y-132400000D03*
D34*
X100700000Y-125700000D03*
X53000000Y-128200000D03*
X73000000Y-40000000D03*
M02*
