G04 #@! TF.FileFunction,Soldermask,Bot*
%FSLAX46Y46*%
G04 Gerber Fmt 4.6, Leading zero omitted, Abs format (unit mm)*
G04 Created by KiCad (PCBNEW 4.0.2+dfsg1-stable) date Sat 10 Jun 2017 09:37:02 PM MDT*
%MOMM*%
G01*
G04 APERTURE LIST*
%ADD10C,0.100000*%
%ADD11C,2.100000*%
%ADD12R,2.600000X2.600000*%
%ADD13R,3.600000X3.600000*%
%ADD14C,2.900000*%
%ADD15C,4.400000*%
%ADD16C,2.200000*%
%ADD17R,3.800000X3.600000*%
%ADD18C,3.600000*%
G04 APERTURE END LIST*
D10*
D11*
X55300000Y-85200000D03*
X55300000Y-75800000D03*
X55300000Y-80500000D03*
X90500000Y-42900000D03*
X99900000Y-42900000D03*
X95200000Y-42900000D03*
D12*
X107100000Y-105700000D03*
D13*
X117300000Y-105700000D03*
X117300000Y-96500000D03*
D12*
X107100000Y-96500000D03*
D14*
X109344000Y-127448000D03*
X109344000Y-119948000D03*
X106144000Y-127448000D03*
X106144000Y-119948000D03*
D15*
X122444000Y-115208000D03*
X122444000Y-132208000D03*
X122474000Y-40274000D03*
D14*
X106144000Y-45024000D03*
X106144000Y-52524000D03*
X106144000Y-60024000D03*
X106144000Y-67524000D03*
X106144000Y-75024000D03*
X106144000Y-82524000D03*
X109344000Y-82524000D03*
X109344000Y-75024000D03*
X109344000Y-67524000D03*
X109344000Y-60024000D03*
X109344000Y-52524000D03*
X109344000Y-45024000D03*
D15*
X122474000Y-87274000D03*
D16*
X79300000Y-126200000D03*
X76800000Y-126200000D03*
X59300000Y-126200000D03*
X61800000Y-126200000D03*
X74300000Y-126200000D03*
X64300000Y-126200000D03*
X66800000Y-126200000D03*
X71800000Y-126200000D03*
X69300000Y-126200000D03*
D17*
X73300000Y-71700000D03*
D11*
X83300000Y-66650000D03*
X83300000Y-62900000D03*
X83300000Y-70400000D03*
D17*
X73300000Y-61600000D03*
X73300000Y-54800000D03*
D11*
X83300000Y-49750000D03*
X83300000Y-46000000D03*
X83300000Y-53500000D03*
D17*
X73300000Y-44700000D03*
D11*
X55200000Y-70500000D03*
X55200000Y-61100000D03*
X55200000Y-65800000D03*
X55300000Y-56000000D03*
X55300000Y-46600000D03*
X55300000Y-51300000D03*
D18*
X55400000Y-41500000D03*
X99100000Y-60400000D03*
X53300000Y-132600000D03*
X101000000Y-132400000D03*
M02*
