G04 #@! TF.FileFunction,Copper,L2,Bot,Signal*
%FSLAX46Y46*%
G04 Gerber Fmt 4.6, Leading zero omitted, Abs format (unit mm)*
G04 Created by KiCad (PCBNEW 4.0.2+dfsg1-stable) date Sat 10 Jun 2017 09:46:08 PM MDT*
%MOMM*%
G01*
G04 APERTURE LIST*
%ADD10C,0.100000*%
%ADD11C,1.700000*%
%ADD12R,2.200000X2.200000*%
%ADD13R,3.200000X3.200000*%
%ADD14C,1.879600*%
%ADD15R,1.879600X1.879600*%
%ADD16C,2.500000*%
%ADD17C,4.000000*%
%ADD18C,1.800000*%
%ADD19R,3.400000X3.200000*%
%ADD20R,1.000000X1.000000*%
%ADD21R,1.000000X1.400000*%
%ADD22R,1.550000X4.700000*%
%ADD23R,3.300000X4.200000*%
%ADD24R,3.300000X0.600000*%
%ADD25C,3.200000*%
%ADD26C,0.600000*%
%ADD27C,0.500000*%
%ADD28C,0.250000*%
%ADD29C,5.000000*%
%ADD30C,0.254000*%
G04 APERTURE END LIST*
D10*
D11*
X55300000Y-85200000D03*
X55300000Y-75800000D03*
X55300000Y-80500000D03*
X90500000Y-42900000D03*
X99900000Y-42900000D03*
X95200000Y-42900000D03*
D12*
X107100000Y-105700000D03*
D13*
X117300000Y-105700000D03*
X117300000Y-96500000D03*
D12*
X107100000Y-96500000D03*
D14*
X85920000Y-129740000D03*
X85920000Y-127200000D03*
X88460000Y-129740000D03*
X88460000Y-127200000D03*
X91000000Y-129740000D03*
X91000000Y-127200000D03*
D15*
X55300000Y-98400000D03*
D14*
X55300000Y-95860000D03*
X55300000Y-93320000D03*
X55300000Y-90780000D03*
D16*
X109344000Y-127448000D03*
X109344000Y-119948000D03*
X106144000Y-127448000D03*
X106144000Y-119948000D03*
D17*
X122444000Y-115208000D03*
X122444000Y-132208000D03*
X122474000Y-40274000D03*
D16*
X106144000Y-45024000D03*
X106144000Y-52524000D03*
X106144000Y-60024000D03*
X106144000Y-67524000D03*
X106144000Y-75024000D03*
X106144000Y-82524000D03*
X109344000Y-82524000D03*
X109344000Y-75024000D03*
X109344000Y-67524000D03*
X109344000Y-60024000D03*
X109344000Y-52524000D03*
X109344000Y-45024000D03*
D17*
X122474000Y-87274000D03*
D18*
X79300000Y-126200000D03*
X76800000Y-126200000D03*
X59300000Y-126200000D03*
X61800000Y-126200000D03*
X74300000Y-126200000D03*
X64300000Y-126200000D03*
X66800000Y-126200000D03*
X71800000Y-126200000D03*
X69300000Y-126200000D03*
D19*
X73300000Y-71700000D03*
D11*
X83300000Y-66650000D03*
X83300000Y-62900000D03*
X83300000Y-70400000D03*
D19*
X73300000Y-61600000D03*
X73300000Y-54800000D03*
D11*
X83300000Y-49750000D03*
X83300000Y-46000000D03*
X83300000Y-53500000D03*
D19*
X73300000Y-44700000D03*
D11*
X55200000Y-70500000D03*
X55200000Y-61100000D03*
X55200000Y-65800000D03*
X55300000Y-56000000D03*
X55300000Y-46600000D03*
X55300000Y-51300000D03*
D20*
X102000000Y-53550000D03*
D21*
X102000000Y-52500000D03*
D20*
X102000000Y-49650000D03*
X102000000Y-51450000D03*
X102000000Y-54450000D03*
X102000000Y-50550000D03*
X102000000Y-55250000D03*
X102000000Y-48750000D03*
X101100000Y-48750000D03*
X99300000Y-48750000D03*
X100200000Y-48750000D03*
X97500000Y-48750000D03*
X96600000Y-48750000D03*
X98400000Y-48750000D03*
X102000000Y-56250000D03*
X100200000Y-56250000D03*
X96600000Y-56250000D03*
X98400000Y-56250000D03*
X99300000Y-56250000D03*
X97500000Y-56250000D03*
X101100000Y-56250000D03*
X101200000Y-53550000D03*
X101200000Y-51450000D03*
D21*
X101200000Y-52500000D03*
D20*
X101200000Y-50550000D03*
X99300000Y-49650000D03*
X98400000Y-49650000D03*
X97500000Y-49650000D03*
X101100000Y-49650000D03*
X96600000Y-55350000D03*
X97500000Y-55350000D03*
X98400000Y-55350000D03*
X99300000Y-55350000D03*
X100200000Y-55350000D03*
X101100000Y-55350000D03*
X101200000Y-54450000D03*
X96600000Y-49650000D03*
X100200000Y-49650000D03*
D22*
X99950000Y-52500000D03*
D23*
X97750000Y-52500000D03*
D24*
X97750000Y-50300000D03*
X97750000Y-54700000D03*
D20*
X100800000Y-69550000D03*
D21*
X100800000Y-68500000D03*
D20*
X100800000Y-65650000D03*
X100800000Y-67450000D03*
X100800000Y-70450000D03*
X100800000Y-66550000D03*
X100800000Y-71250000D03*
X100800000Y-64750000D03*
X99900000Y-64750000D03*
X98100000Y-64750000D03*
X99000000Y-64750000D03*
X96300000Y-64750000D03*
X95400000Y-64750000D03*
X97200000Y-64750000D03*
X100800000Y-72250000D03*
X99000000Y-72250000D03*
X95400000Y-72250000D03*
X97200000Y-72250000D03*
X98100000Y-72250000D03*
X96300000Y-72250000D03*
X99900000Y-72250000D03*
X100000000Y-69550000D03*
X100000000Y-67450000D03*
D21*
X100000000Y-68500000D03*
D20*
X100000000Y-66550000D03*
X98100000Y-65650000D03*
X97200000Y-65650000D03*
X96300000Y-65650000D03*
X99900000Y-65650000D03*
X95400000Y-71350000D03*
X96300000Y-71350000D03*
X97200000Y-71350000D03*
X98100000Y-71350000D03*
X99000000Y-71350000D03*
X99900000Y-71350000D03*
X100000000Y-70450000D03*
X95400000Y-65650000D03*
X99000000Y-65650000D03*
D22*
X98750000Y-68500000D03*
D23*
X96550000Y-68500000D03*
D24*
X96550000Y-66300000D03*
X96550000Y-70700000D03*
D20*
X100800000Y-82700000D03*
D21*
X100800000Y-81650000D03*
D20*
X100800000Y-78800000D03*
X100800000Y-80600000D03*
X100800000Y-83600000D03*
X100800000Y-79700000D03*
X100800000Y-84400000D03*
X100800000Y-77900000D03*
X99900000Y-77900000D03*
X98100000Y-77900000D03*
X99000000Y-77900000D03*
X96300000Y-77900000D03*
X95400000Y-77900000D03*
X97200000Y-77900000D03*
X100800000Y-85400000D03*
X99000000Y-85400000D03*
X95400000Y-85400000D03*
X97200000Y-85400000D03*
X98100000Y-85400000D03*
X96300000Y-85400000D03*
X99900000Y-85400000D03*
X100000000Y-82700000D03*
X100000000Y-80600000D03*
D21*
X100000000Y-81650000D03*
D20*
X100000000Y-79700000D03*
X98100000Y-78800000D03*
X97200000Y-78800000D03*
X96300000Y-78800000D03*
X99900000Y-78800000D03*
X95400000Y-84500000D03*
X96300000Y-84500000D03*
X97200000Y-84500000D03*
X98100000Y-84500000D03*
X99000000Y-84500000D03*
X99900000Y-84500000D03*
X100000000Y-83600000D03*
X95400000Y-78800000D03*
X99000000Y-78800000D03*
D22*
X98750000Y-81650000D03*
D23*
X96550000Y-81650000D03*
D24*
X96550000Y-79450000D03*
X96550000Y-83850000D03*
D25*
X55400000Y-41500000D03*
X99100000Y-60400000D03*
X53300000Y-132600000D03*
X101000000Y-132400000D03*
D26*
X71000000Y-104000000D03*
X95185002Y-91000000D03*
X101748000Y-108500000D03*
X79200000Y-77200000D03*
X100000000Y-90000000D03*
X60250000Y-105250000D03*
X65000000Y-103000000D03*
X84000000Y-101000000D03*
X68500000Y-101000000D03*
X86200000Y-46900000D03*
X95200000Y-46500000D03*
X68800000Y-93300000D03*
X91000000Y-99800000D03*
X67702340Y-98600000D03*
X83500000Y-73000000D03*
X78000000Y-73000000D03*
X78000000Y-106249990D03*
X76000000Y-106249990D03*
X71000000Y-96000000D03*
X68899991Y-96175002D03*
X91300000Y-111000000D03*
X74800000Y-107800000D03*
X97500000Y-106500000D03*
X117300000Y-87400000D03*
X101300000Y-87400000D03*
X97300000Y-99500000D03*
X64000000Y-88000000D03*
X84900000Y-88850000D03*
X87300000Y-102200000D03*
X62500000Y-102200000D03*
X59300000Y-120600000D03*
X63800000Y-120600000D03*
X65302040Y-119000000D03*
X54000000Y-119000000D03*
X54000000Y-87000000D03*
X84949999Y-85599998D03*
X66099997Y-118050010D03*
X52949991Y-118050010D03*
X52949991Y-118050010D03*
X53000000Y-82000000D03*
X85000000Y-81000000D03*
X66900000Y-118050010D03*
X77000000Y-118000000D03*
X77050001Y-48449999D03*
X94200000Y-49000000D03*
X67702340Y-117297660D03*
X52200000Y-117300000D03*
X52200000Y-80500000D03*
X51449990Y-116300000D03*
X68499900Y-116299900D03*
X69300000Y-115400000D03*
X50749989Y-115349989D03*
X88500000Y-114900000D03*
X70100000Y-114900000D03*
X84300000Y-114100000D03*
X70900000Y-114100000D03*
X73500000Y-107000000D03*
X81500000Y-107000000D03*
X81500000Y-132000000D03*
X88500000Y-132000000D03*
X82000000Y-105000000D03*
X71000000Y-105500000D03*
X76000000Y-49700000D03*
X75000000Y-94600000D03*
X86100000Y-94600000D03*
X79000000Y-100000000D03*
X72582464Y-100066894D03*
X72000000Y-90000000D03*
X102000000Y-91000000D03*
X58000000Y-128000000D03*
X59997018Y-106008948D03*
X70000000Y-105500000D03*
X62339999Y-89139999D03*
X69650001Y-89139999D03*
X66900000Y-96400000D03*
X66100000Y-98400000D03*
X87300000Y-97400000D03*
X65300000Y-97400000D03*
X86999989Y-55900000D03*
X94400000Y-56000000D03*
X93400000Y-77800000D03*
X86700000Y-82900000D03*
X93310356Y-84882698D03*
X85750000Y-85600000D03*
D27*
X64300000Y-126200000D02*
X64300000Y-123800000D01*
X71800000Y-124200000D02*
X74800000Y-124200000D01*
X74800000Y-124200000D02*
X76800000Y-126200000D01*
X71800000Y-126200000D02*
X71800000Y-124200000D01*
X65000000Y-103000000D02*
X65000000Y-103500000D01*
X60250000Y-105250000D02*
X60250000Y-104250000D01*
D28*
X100000000Y-90000000D02*
X100000000Y-89000000D01*
X60000000Y-105000000D02*
X60250000Y-105250000D01*
X65000000Y-103000000D02*
X65000000Y-104000000D01*
D27*
X68500000Y-101000000D02*
X84000000Y-101000000D01*
X86600000Y-46500000D02*
X86200000Y-46900000D01*
X95200000Y-46500000D02*
X86600000Y-46500000D01*
X68800000Y-93300000D02*
X55320000Y-93300000D01*
X55320000Y-93300000D02*
X55300000Y-93320000D01*
X85400000Y-98600000D02*
X86600000Y-99800000D01*
X86600000Y-99800000D02*
X91000000Y-99800000D01*
X67702340Y-98600000D02*
X85400000Y-98600000D01*
X78000000Y-73000000D02*
X83500000Y-73000000D01*
X76000000Y-106249990D02*
X78000000Y-106249990D01*
X68899991Y-96175002D02*
X70824998Y-96175002D01*
X70824998Y-96175002D02*
X71000000Y-96000000D01*
X74800000Y-107800000D02*
X88100000Y-107800000D01*
X88100000Y-107800000D02*
X91300000Y-111000000D01*
X97500000Y-106500000D02*
X98356001Y-105643999D01*
X98356001Y-105643999D02*
X98356001Y-100556001D01*
X101724264Y-87400000D02*
X117300000Y-87400000D01*
X101300000Y-87400000D02*
X101724264Y-87400000D01*
D29*
X117300000Y-96500000D02*
X117300000Y-97456000D01*
X117300000Y-97456000D02*
X114199999Y-100556001D01*
X97300000Y-99500000D02*
X98356001Y-100556001D01*
X98356001Y-100556001D02*
X114199999Y-100556001D01*
D27*
X84900000Y-88850000D02*
X84050000Y-88000000D01*
X84050000Y-88000000D02*
X64000000Y-88000000D01*
X62500000Y-102200000D02*
X87300000Y-102200000D01*
X63800000Y-120600000D02*
X59300000Y-120600000D01*
X54000000Y-119000000D02*
X65302040Y-119000000D01*
X83000000Y-86000000D02*
X82000000Y-87000000D01*
X82000000Y-87000000D02*
X54000000Y-87000000D01*
X84549997Y-86000000D02*
X83000000Y-86000000D01*
X84949999Y-85599998D02*
X84549997Y-86000000D01*
X52949991Y-118050010D02*
X66099997Y-118050010D01*
X83000000Y-81000000D02*
X82000000Y-82000000D01*
X82000000Y-82000000D02*
X53000000Y-82000000D01*
X85000000Y-81000000D02*
X83000000Y-81000000D01*
X77000000Y-118000000D02*
X76575736Y-118000000D01*
X76575736Y-118000000D02*
X76525726Y-118050010D01*
X76525726Y-118050010D02*
X66900000Y-118050010D01*
X94200000Y-49000000D02*
X93649999Y-48449999D01*
X93649999Y-48449999D02*
X77050001Y-48449999D01*
X52200000Y-117300000D02*
X67700000Y-117300000D01*
X67700000Y-117300000D02*
X67702340Y-117297660D01*
X55300000Y-80500000D02*
X52200000Y-80500000D01*
X51449990Y-116300000D02*
X68499800Y-116300000D01*
X68499800Y-116300000D02*
X68499900Y-116299900D01*
X50749989Y-115349989D02*
X69249989Y-115349989D01*
X69249989Y-115349989D02*
X69300000Y-115400000D01*
X70100000Y-114900000D02*
X88500000Y-114900000D01*
X70900000Y-114100000D02*
X84300000Y-114100000D01*
X81500000Y-107000000D02*
X73500000Y-107000000D01*
X88500000Y-132000000D02*
X81500000Y-132000000D01*
X71500000Y-105000000D02*
X82000000Y-105000000D01*
X71000000Y-105500000D02*
X71500000Y-105000000D01*
X83300000Y-49750000D02*
X76050000Y-49750000D01*
X76050000Y-49750000D02*
X76000000Y-49700000D01*
X86100000Y-94600000D02*
X75000000Y-94600000D01*
X72582464Y-100066894D02*
X78933106Y-100066894D01*
X78933106Y-100066894D02*
X79000000Y-100000000D01*
X102000000Y-91000000D02*
X96295004Y-91000000D01*
X96295004Y-91000000D02*
X95295004Y-90000000D01*
X95295004Y-90000000D02*
X72000000Y-90000000D01*
X58000000Y-128000000D02*
X72500000Y-128000000D01*
X72500000Y-128000000D02*
X74300000Y-126200000D01*
X60610001Y-106000001D02*
X60005965Y-106000001D01*
X60005965Y-106000001D02*
X59997018Y-106008948D01*
X70000000Y-105500000D02*
X69500000Y-106000000D01*
X69500000Y-106000000D02*
X60610001Y-106000001D01*
X69650001Y-89139999D02*
X62339999Y-89139999D01*
X66900000Y-96400000D02*
X66360000Y-95860000D01*
X66360000Y-95860000D02*
X55300000Y-95860000D01*
X66100000Y-98400000D02*
X55300000Y-98400000D01*
X65300000Y-97400000D02*
X87300000Y-97400000D01*
X96600000Y-49650000D02*
X96600000Y-51350000D01*
X96600000Y-51350000D02*
X97750000Y-52500000D01*
X101100000Y-49650000D02*
X96600000Y-49650000D01*
X101100000Y-55350000D02*
X101100000Y-49650000D01*
X96600000Y-55350000D02*
X101100000Y-55350000D01*
X96600000Y-56250000D02*
X96600000Y-55350000D01*
X102000000Y-56250000D02*
X96600000Y-56250000D01*
X102000000Y-48750000D02*
X102000000Y-56250000D01*
X96600000Y-48750000D02*
X102000000Y-48750000D01*
X98400000Y-55350000D02*
X98400000Y-53150000D01*
X98400000Y-53150000D02*
X97750000Y-52500000D01*
X97200000Y-65650000D02*
X97200000Y-67850000D01*
X97200000Y-67850000D02*
X96550000Y-68500000D01*
X96550000Y-81650000D02*
X96550000Y-79450000D01*
X96550000Y-79450000D02*
X97200000Y-78800000D01*
X86999989Y-55900000D02*
X94300000Y-55900000D01*
X94300000Y-55900000D02*
X94400000Y-56000000D01*
X86700000Y-82900000D02*
X91800000Y-77800000D01*
X91800000Y-77800000D02*
X93400000Y-77800000D01*
X92600000Y-85600000D02*
X93300000Y-84900000D01*
X85750000Y-85600000D02*
X92600000Y-85600000D01*
D30*
G36*
X120036420Y-38642182D02*
X119597500Y-39699219D01*
X119596501Y-40843760D01*
X120033576Y-41901561D01*
X120842182Y-42711580D01*
X121899219Y-43150500D01*
X123043760Y-43151499D01*
X124101561Y-42714424D01*
X124911580Y-41905818D01*
X125048000Y-41577282D01*
X125048000Y-85969717D01*
X124914424Y-85646439D01*
X124105818Y-84836420D01*
X123048781Y-84397500D01*
X121904240Y-84396501D01*
X120846439Y-84833576D01*
X120036420Y-85642182D01*
X119597500Y-86699219D01*
X119596501Y-87843760D01*
X120033576Y-88901561D01*
X120842182Y-89711580D01*
X121899219Y-90150500D01*
X123043760Y-90151499D01*
X124101561Y-89714424D01*
X124911580Y-88905818D01*
X125048000Y-88577282D01*
X125048000Y-113976323D01*
X124884424Y-113580439D01*
X124075818Y-112770420D01*
X123018781Y-112331500D01*
X121874240Y-112330501D01*
X120816439Y-112767576D01*
X120006420Y-113576182D01*
X119567500Y-114633219D01*
X119566501Y-115777760D01*
X120003576Y-116835561D01*
X120812182Y-117645580D01*
X121869219Y-118084500D01*
X123013760Y-118085499D01*
X124071561Y-117648424D01*
X124881580Y-116839818D01*
X125048000Y-116439034D01*
X125048000Y-130976323D01*
X124884424Y-130580439D01*
X124075818Y-129770420D01*
X123018781Y-129331500D01*
X121874240Y-129330501D01*
X120816439Y-129767576D01*
X120006420Y-130576182D01*
X119567500Y-131633219D01*
X119566501Y-132777760D01*
X120003576Y-133835561D01*
X120812182Y-134645580D01*
X121781317Y-135048000D01*
X53861768Y-135048000D01*
X54701275Y-134701123D01*
X55398674Y-134004940D01*
X55776569Y-133094867D01*
X55777321Y-132233093D01*
X80322796Y-132233093D01*
X80501606Y-132665846D01*
X80832412Y-132997230D01*
X81264853Y-133176795D01*
X81733093Y-133177204D01*
X81854596Y-133127000D01*
X88144933Y-133127000D01*
X88264853Y-133176795D01*
X88733093Y-133177204D01*
X89165846Y-132998394D01*
X89273884Y-132890544D01*
X98522571Y-132890544D01*
X98898877Y-133801275D01*
X99595060Y-134498674D01*
X100505133Y-134876569D01*
X101490544Y-134877429D01*
X102401275Y-134501123D01*
X103098674Y-133804940D01*
X103476569Y-132894867D01*
X103477429Y-131909456D01*
X103101123Y-130998725D01*
X102404940Y-130301326D01*
X101494867Y-129923431D01*
X100509456Y-129922571D01*
X99598725Y-130298877D01*
X98901326Y-130995060D01*
X98523431Y-131905133D01*
X98522571Y-132890544D01*
X89273884Y-132890544D01*
X89497230Y-132667588D01*
X89676795Y-132235147D01*
X89677204Y-131766907D01*
X89498394Y-131334154D01*
X89457806Y-131293495D01*
X89487790Y-131281106D01*
X89729974Y-131039344D01*
X89969522Y-131279310D01*
X90637031Y-131556484D01*
X91359798Y-131557114D01*
X92027790Y-131281106D01*
X92539310Y-130770478D01*
X92816484Y-130102969D01*
X92817114Y-129380202D01*
X92541106Y-128712210D01*
X92148399Y-128318817D01*
X92223412Y-128243804D01*
X92108970Y-128129362D01*
X92369580Y-128038077D01*
X92431748Y-127869230D01*
X104016632Y-127869230D01*
X104339766Y-128651274D01*
X104937578Y-129250131D01*
X105719057Y-129574630D01*
X106565230Y-129575368D01*
X107347274Y-129252234D01*
X107744168Y-128856033D01*
X108137578Y-129250131D01*
X108919057Y-129574630D01*
X109765230Y-129575368D01*
X110547274Y-129252234D01*
X111146131Y-128654422D01*
X111470630Y-127872943D01*
X111471368Y-127026770D01*
X111148234Y-126244726D01*
X110550422Y-125645869D01*
X109768943Y-125321370D01*
X108922770Y-125320632D01*
X108140726Y-125643766D01*
X107743832Y-126039967D01*
X107350422Y-125645869D01*
X106568943Y-125321370D01*
X105722770Y-125320632D01*
X104940726Y-125643766D01*
X104341869Y-126241578D01*
X104017370Y-127023057D01*
X104016632Y-127869230D01*
X92431748Y-127869230D01*
X92586045Y-127450167D01*
X92561049Y-126824172D01*
X92369580Y-126361923D01*
X92108968Y-126270637D01*
X91179605Y-127200000D01*
X91193748Y-127214143D01*
X91014143Y-127393748D01*
X91000000Y-127379605D01*
X90985858Y-127393748D01*
X90806253Y-127214143D01*
X90820395Y-127200000D01*
X90806253Y-127185858D01*
X90985858Y-127006253D01*
X91000000Y-127020395D01*
X91929363Y-126091032D01*
X91838077Y-125830420D01*
X91250167Y-125613955D01*
X90624172Y-125638951D01*
X90161923Y-125830420D01*
X90070638Y-126091030D01*
X89956196Y-125976588D01*
X89880945Y-126051839D01*
X89490478Y-125660690D01*
X88822969Y-125383516D01*
X88100202Y-125382886D01*
X87432210Y-125658894D01*
X87190026Y-125900656D01*
X86950478Y-125660690D01*
X86282969Y-125383516D01*
X85560202Y-125382886D01*
X84892210Y-125658894D01*
X84380690Y-126169522D01*
X84103516Y-126837031D01*
X84102886Y-127559798D01*
X84378894Y-128227790D01*
X84620656Y-128469974D01*
X84380690Y-128709522D01*
X84103516Y-129377031D01*
X84102886Y-130099798D01*
X84378894Y-130767790D01*
X84483921Y-130873000D01*
X81855067Y-130873000D01*
X81735147Y-130823205D01*
X81266907Y-130822796D01*
X80834154Y-131001606D01*
X80502770Y-131332412D01*
X80323205Y-131764853D01*
X80322796Y-132233093D01*
X55777321Y-132233093D01*
X55777429Y-132109456D01*
X55401123Y-131198725D01*
X54704940Y-130501326D01*
X53794867Y-130123431D01*
X52809456Y-130122571D01*
X51898725Y-130498877D01*
X51201326Y-131195060D01*
X50823431Y-132105133D01*
X50822571Y-133090544D01*
X51198877Y-134001275D01*
X51895060Y-134698674D01*
X52736331Y-135048000D01*
X50482000Y-135048000D01*
X50482000Y-128233093D01*
X56822796Y-128233093D01*
X57001606Y-128665846D01*
X57332412Y-128997230D01*
X57764853Y-129176795D01*
X58233093Y-129177204D01*
X58354596Y-129127000D01*
X72500000Y-129127000D01*
X72931284Y-129041212D01*
X73296909Y-128796909D01*
X74116978Y-127976840D01*
X74651916Y-127977307D01*
X75305274Y-127707345D01*
X75701741Y-127311569D01*
X75784890Y-127394718D01*
X75899447Y-127280161D01*
X75985852Y-127536643D01*
X76559336Y-127746458D01*
X77169460Y-127720839D01*
X77614148Y-127536643D01*
X77700553Y-127280161D01*
X77815110Y-127394718D01*
X77898512Y-127311316D01*
X78292096Y-127705588D01*
X78944982Y-127976690D01*
X79651916Y-127977307D01*
X80305274Y-127707345D01*
X80805588Y-127207904D01*
X81076690Y-126555018D01*
X81077307Y-125848084D01*
X80807345Y-125194726D01*
X80307904Y-124694412D01*
X79655018Y-124423310D01*
X78948084Y-124422693D01*
X78294726Y-124692655D01*
X77898259Y-125088431D01*
X77815110Y-125005282D01*
X77700553Y-125119839D01*
X77614148Y-124863357D01*
X77040664Y-124653542D01*
X76430540Y-124679161D01*
X75985852Y-124863357D01*
X75899447Y-125119839D01*
X75784890Y-125005282D01*
X75701488Y-125088684D01*
X75307904Y-124694412D01*
X74655018Y-124423310D01*
X73948084Y-124422693D01*
X73294726Y-124692655D01*
X72898259Y-125088431D01*
X72815110Y-125005282D01*
X72700553Y-125119839D01*
X72614148Y-124863357D01*
X72040664Y-124653542D01*
X71430540Y-124679161D01*
X70985852Y-124863357D01*
X70899447Y-125119839D01*
X70784890Y-125005282D01*
X70701488Y-125088684D01*
X70307904Y-124694412D01*
X69655018Y-124423310D01*
X68948084Y-124422693D01*
X68294726Y-124692655D01*
X68050011Y-124936943D01*
X67807904Y-124694412D01*
X67155018Y-124423310D01*
X66448084Y-124422693D01*
X65794726Y-124692655D01*
X65398259Y-125088431D01*
X65315110Y-125005282D01*
X65200553Y-125119839D01*
X65114148Y-124863357D01*
X64540664Y-124653542D01*
X63930540Y-124679161D01*
X63485852Y-124863357D01*
X63399447Y-125119839D01*
X63284890Y-125005282D01*
X63201488Y-125088684D01*
X62807904Y-124694412D01*
X62155018Y-124423310D01*
X61448084Y-124422693D01*
X60794726Y-124692655D01*
X60550011Y-124936943D01*
X60307904Y-124694412D01*
X59655018Y-124423310D01*
X58948084Y-124422693D01*
X58294726Y-124692655D01*
X57794412Y-125192096D01*
X57523310Y-125844982D01*
X57522693Y-126551916D01*
X57653910Y-126869485D01*
X57334154Y-127001606D01*
X57002770Y-127332412D01*
X56823205Y-127764853D01*
X56822796Y-128233093D01*
X50482000Y-128233093D01*
X50482000Y-116996303D01*
X50782402Y-117297230D01*
X51022915Y-117397100D01*
X51022796Y-117533093D01*
X51201606Y-117965846D01*
X51532412Y-118297230D01*
X51829616Y-118420640D01*
X51951597Y-118715856D01*
X52282403Y-119047240D01*
X52714844Y-119226805D01*
X52822801Y-119226899D01*
X52822796Y-119233093D01*
X53001606Y-119665846D01*
X53332412Y-119997230D01*
X53764853Y-120176795D01*
X54233093Y-120177204D01*
X54354596Y-120127000D01*
X58221970Y-120127000D01*
X58123205Y-120364853D01*
X58122796Y-120833093D01*
X58301606Y-121265846D01*
X58632412Y-121597230D01*
X59064853Y-121776795D01*
X59533093Y-121777204D01*
X59654596Y-121727000D01*
X63444933Y-121727000D01*
X63564853Y-121776795D01*
X64033093Y-121777204D01*
X64465846Y-121598394D01*
X64783474Y-121281320D01*
X104990285Y-121281320D01*
X105119533Y-121574123D01*
X105819806Y-121842388D01*
X106569435Y-121822250D01*
X107168467Y-121574123D01*
X107297715Y-121281320D01*
X108190285Y-121281320D01*
X108319533Y-121574123D01*
X109019806Y-121842388D01*
X109769435Y-121822250D01*
X110368467Y-121574123D01*
X110497715Y-121281320D01*
X109344000Y-120127605D01*
X108190285Y-121281320D01*
X107297715Y-121281320D01*
X106144000Y-120127605D01*
X104990285Y-121281320D01*
X64783474Y-121281320D01*
X64797230Y-121267588D01*
X64976795Y-120835147D01*
X64977204Y-120366907D01*
X64878076Y-120127000D01*
X64946973Y-120127000D01*
X65066893Y-120176795D01*
X65535133Y-120177204D01*
X65967886Y-119998394D01*
X66299270Y-119667588D01*
X66317449Y-119623806D01*
X104249612Y-119623806D01*
X104269750Y-120373435D01*
X104517877Y-120972467D01*
X104810680Y-121101715D01*
X105964395Y-119948000D01*
X106323605Y-119948000D01*
X107477320Y-121101715D01*
X107744000Y-120983998D01*
X108010680Y-121101715D01*
X109164395Y-119948000D01*
X109523605Y-119948000D01*
X110677320Y-121101715D01*
X110970123Y-120972467D01*
X111238388Y-120272194D01*
X111218250Y-119522565D01*
X110970123Y-118923533D01*
X110677320Y-118794285D01*
X109523605Y-119948000D01*
X109164395Y-119948000D01*
X108010680Y-118794285D01*
X107744000Y-118912002D01*
X107477320Y-118794285D01*
X106323605Y-119948000D01*
X105964395Y-119948000D01*
X104810680Y-118794285D01*
X104517877Y-118923533D01*
X104249612Y-119623806D01*
X66317449Y-119623806D01*
X66478835Y-119235147D01*
X66478895Y-119166969D01*
X66499874Y-119158300D01*
X66664853Y-119226805D01*
X67133093Y-119227214D01*
X67254596Y-119177010D01*
X76525726Y-119177010D01*
X76687754Y-119144781D01*
X76764853Y-119176795D01*
X77233093Y-119177204D01*
X77665846Y-118998394D01*
X77997230Y-118667588D01*
X78019199Y-118614680D01*
X104990285Y-118614680D01*
X106144000Y-119768395D01*
X107297715Y-118614680D01*
X108190285Y-118614680D01*
X109344000Y-119768395D01*
X110497715Y-118614680D01*
X110368467Y-118321877D01*
X109668194Y-118053612D01*
X108918565Y-118073750D01*
X108319533Y-118321877D01*
X108190285Y-118614680D01*
X107297715Y-118614680D01*
X107168467Y-118321877D01*
X106468194Y-118053612D01*
X105718565Y-118073750D01*
X105119533Y-118321877D01*
X104990285Y-118614680D01*
X78019199Y-118614680D01*
X78176795Y-118235147D01*
X78177204Y-117766907D01*
X77998394Y-117334154D01*
X77667588Y-117002770D01*
X77235147Y-116823205D01*
X76766907Y-116822796D01*
X76645404Y-116873000D01*
X76575736Y-116873000D01*
X76324320Y-116923010D01*
X69515599Y-116923010D01*
X69676695Y-116535047D01*
X69676710Y-116517863D01*
X69965846Y-116398394D01*
X70287637Y-116077164D01*
X70333093Y-116077204D01*
X70454596Y-116027000D01*
X88144933Y-116027000D01*
X88264853Y-116076795D01*
X88733093Y-116077204D01*
X89165846Y-115898394D01*
X89497230Y-115567588D01*
X89676795Y-115135147D01*
X89677204Y-114666907D01*
X89498394Y-114234154D01*
X89167588Y-113902770D01*
X88735147Y-113723205D01*
X88266907Y-113722796D01*
X88145404Y-113773000D01*
X85438402Y-113773000D01*
X85298394Y-113434154D01*
X84967588Y-113102770D01*
X84535147Y-112923205D01*
X84066907Y-112922796D01*
X83945404Y-112973000D01*
X71255067Y-112973000D01*
X71135147Y-112923205D01*
X70666907Y-112922796D01*
X70234154Y-113101606D01*
X69902770Y-113432412D01*
X69764647Y-113765049D01*
X69434154Y-113901606D01*
X69112363Y-114222836D01*
X69066907Y-114222796D01*
X69066440Y-114222989D01*
X51105056Y-114222989D01*
X50985136Y-114173194D01*
X50516896Y-114172785D01*
X50482000Y-114187204D01*
X50482000Y-106242041D01*
X58819814Y-106242041D01*
X58998624Y-106674794D01*
X59329430Y-107006178D01*
X59761871Y-107185743D01*
X60230111Y-107186152D01*
X60373267Y-107127001D01*
X60610001Y-107127001D01*
X69500000Y-107127000D01*
X69931284Y-107041212D01*
X70296909Y-106796909D01*
X70519078Y-106574740D01*
X70764853Y-106676795D01*
X71233093Y-106677204D01*
X71665846Y-106498394D01*
X71997230Y-106167588D01*
X72014084Y-106127000D01*
X72708541Y-106127000D01*
X72502770Y-106332412D01*
X72323205Y-106764853D01*
X72322796Y-107233093D01*
X72501606Y-107665846D01*
X72832412Y-107997230D01*
X73264853Y-108176795D01*
X73682323Y-108177160D01*
X73801606Y-108465846D01*
X74132412Y-108797230D01*
X74564853Y-108976795D01*
X75033093Y-108977204D01*
X75154596Y-108927000D01*
X87633182Y-108927000D01*
X90252020Y-111545839D01*
X90301606Y-111665846D01*
X90632412Y-111997230D01*
X91064853Y-112176795D01*
X91533093Y-112177204D01*
X91965846Y-111998394D01*
X92297230Y-111667588D01*
X92476795Y-111235147D01*
X92477204Y-110766907D01*
X92298394Y-110334154D01*
X91967588Y-110002770D01*
X91846173Y-109952354D01*
X88896909Y-107003091D01*
X88531284Y-106758788D01*
X88100000Y-106673000D01*
X82638402Y-106673000D01*
X82498394Y-106334154D01*
X82309997Y-106145428D01*
X82665846Y-105998394D01*
X82997230Y-105667588D01*
X83176795Y-105235147D01*
X83177204Y-104766907D01*
X82998394Y-104334154D01*
X82667588Y-104002770D01*
X82235147Y-103823205D01*
X81766907Y-103822796D01*
X81645404Y-103873000D01*
X71500000Y-103873000D01*
X71068716Y-103958788D01*
X70703091Y-104203091D01*
X70480922Y-104425260D01*
X70235147Y-104323205D01*
X69766907Y-104322796D01*
X69334154Y-104501606D01*
X69002770Y-104832412D01*
X68985916Y-104873000D01*
X60610001Y-104873001D01*
X60330538Y-104873001D01*
X60232165Y-104832153D01*
X59763925Y-104831744D01*
X59331172Y-105010554D01*
X58999788Y-105341360D01*
X58820223Y-105773801D01*
X58819814Y-106242041D01*
X50482000Y-106242041D01*
X50482000Y-100855698D01*
X50516297Y-97460200D01*
X53466019Y-97460200D01*
X53466019Y-99339800D01*
X53527171Y-99664797D01*
X53719244Y-99963286D01*
X54012314Y-100163532D01*
X54360200Y-100233981D01*
X56239800Y-100233981D01*
X56564797Y-100172829D01*
X56863286Y-99980756D01*
X57063532Y-99687686D01*
X57096072Y-99527000D01*
X65744933Y-99527000D01*
X65864853Y-99576795D01*
X66333093Y-99577204D01*
X66765846Y-99398394D01*
X66801116Y-99363186D01*
X67034752Y-99597230D01*
X67467193Y-99776795D01*
X67935433Y-99777204D01*
X68056936Y-99727000D01*
X71449164Y-99727000D01*
X71405669Y-99831747D01*
X71405633Y-99873000D01*
X68855067Y-99873000D01*
X68735147Y-99823205D01*
X68266907Y-99822796D01*
X67834154Y-100001606D01*
X67502770Y-100332412D01*
X67323205Y-100764853D01*
X67322936Y-101073000D01*
X62855067Y-101073000D01*
X62735147Y-101023205D01*
X62266907Y-101022796D01*
X61834154Y-101201606D01*
X61502770Y-101532412D01*
X61323205Y-101964853D01*
X61322796Y-102433093D01*
X61501606Y-102865846D01*
X61832412Y-103197230D01*
X62264853Y-103376795D01*
X62733093Y-103377204D01*
X62854596Y-103327000D01*
X86944933Y-103327000D01*
X87064853Y-103376795D01*
X87533093Y-103377204D01*
X87965846Y-103198394D01*
X88297230Y-102867588D01*
X88476795Y-102435147D01*
X88477204Y-101966907D01*
X88298394Y-101534154D01*
X87967588Y-101202770D01*
X87535147Y-101023205D01*
X87066907Y-101022796D01*
X86945404Y-101073000D01*
X85176937Y-101073000D01*
X85177204Y-100766907D01*
X84998394Y-100334154D01*
X84667588Y-100002770D01*
X84235147Y-99823205D01*
X83766907Y-99822796D01*
X83645404Y-99873000D01*
X80177111Y-99873000D01*
X80177204Y-99766907D01*
X80160715Y-99727000D01*
X84933182Y-99727000D01*
X85803090Y-100596909D01*
X86095547Y-100792322D01*
X86168716Y-100841212D01*
X86600000Y-100927000D01*
X90644933Y-100927000D01*
X90764853Y-100976795D01*
X91233093Y-100977204D01*
X91665846Y-100798394D01*
X91997230Y-100467588D01*
X92176795Y-100035147D01*
X92177204Y-99566907D01*
X92149559Y-99500000D01*
X93922999Y-99500000D01*
X94180059Y-100792322D01*
X94912100Y-101887900D01*
X95968101Y-102943901D01*
X97063679Y-103675942D01*
X97229001Y-103708827D01*
X97229001Y-105177180D01*
X96954162Y-105452020D01*
X96834154Y-105501606D01*
X96502770Y-105832412D01*
X96323205Y-106264853D01*
X96322796Y-106733093D01*
X96501606Y-107165846D01*
X96832412Y-107497230D01*
X97264853Y-107676795D01*
X97733093Y-107677204D01*
X98165846Y-107498394D01*
X98497230Y-107167588D01*
X98547646Y-107046172D01*
X99152910Y-106440909D01*
X99397213Y-106075283D01*
X99411868Y-106001606D01*
X99483001Y-105643999D01*
X99483001Y-103933001D01*
X105416986Y-103933001D01*
X105376514Y-103959044D01*
X105176268Y-104252114D01*
X105105819Y-104600000D01*
X105105819Y-106800000D01*
X105166971Y-107124997D01*
X105359044Y-107423486D01*
X105652114Y-107623732D01*
X106000000Y-107694181D01*
X108200000Y-107694181D01*
X108524997Y-107633029D01*
X108823486Y-107440956D01*
X109023732Y-107147886D01*
X109094181Y-106800000D01*
X109094181Y-104600000D01*
X109033029Y-104275003D01*
X108840956Y-103976514D01*
X108777273Y-103933001D01*
X114199994Y-103933001D01*
X114199999Y-103933002D01*
X114866484Y-103800429D01*
X114805819Y-104100000D01*
X114805819Y-107300000D01*
X114866971Y-107624997D01*
X115059044Y-107923486D01*
X115352114Y-108123732D01*
X115700000Y-108194181D01*
X118900000Y-108194181D01*
X119224997Y-108133029D01*
X119523486Y-107940956D01*
X119723732Y-107647886D01*
X119794181Y-107300000D01*
X119794181Y-104100000D01*
X119733029Y-103775003D01*
X119540956Y-103476514D01*
X119247886Y-103276268D01*
X118900000Y-103205819D01*
X116195911Y-103205819D01*
X116587899Y-102943901D01*
X119687897Y-99843902D01*
X119687900Y-99843900D01*
X120419941Y-98748322D01*
X120677000Y-97456000D01*
X120677000Y-96500000D01*
X120419941Y-95207678D01*
X119687900Y-94112100D01*
X118592322Y-93380059D01*
X117300000Y-93123000D01*
X116007678Y-93380059D01*
X114912100Y-94112100D01*
X114180059Y-95207678D01*
X114032948Y-95947252D01*
X112801199Y-97179001D01*
X109094181Y-97179001D01*
X109094181Y-95400000D01*
X109033029Y-95075003D01*
X108840956Y-94776514D01*
X108547886Y-94576268D01*
X108200000Y-94505819D01*
X106000000Y-94505819D01*
X105675003Y-94566971D01*
X105376514Y-94759044D01*
X105176268Y-95052114D01*
X105105819Y-95400000D01*
X105105819Y-97179001D01*
X99754801Y-97179001D01*
X99687900Y-97112100D01*
X98592322Y-96380059D01*
X97300000Y-96122999D01*
X96007678Y-96380059D01*
X94912100Y-97112100D01*
X94180059Y-98207678D01*
X93922999Y-99500000D01*
X92149559Y-99500000D01*
X91998394Y-99134154D01*
X91667588Y-98802770D01*
X91235147Y-98623205D01*
X90766907Y-98622796D01*
X90645404Y-98673000D01*
X87066819Y-98673000D01*
X86920819Y-98527000D01*
X86944933Y-98527000D01*
X87064853Y-98576795D01*
X87533093Y-98577204D01*
X87965846Y-98398394D01*
X88297230Y-98067588D01*
X88476795Y-97635147D01*
X88477204Y-97166907D01*
X88298394Y-96734154D01*
X87967588Y-96402770D01*
X87535147Y-96223205D01*
X87066907Y-96222796D01*
X86945404Y-96273000D01*
X72161077Y-96273000D01*
X72176795Y-96235147D01*
X72177204Y-95766907D01*
X71998394Y-95334154D01*
X71667588Y-95002770D01*
X71258960Y-94833093D01*
X73822796Y-94833093D01*
X74001606Y-95265846D01*
X74332412Y-95597230D01*
X74764853Y-95776795D01*
X75233093Y-95777204D01*
X75354596Y-95727000D01*
X85744933Y-95727000D01*
X85864853Y-95776795D01*
X86333093Y-95777204D01*
X86765846Y-95598394D01*
X87097230Y-95267588D01*
X87276795Y-94835147D01*
X87277204Y-94366907D01*
X87098394Y-93934154D01*
X86767588Y-93602770D01*
X86335147Y-93423205D01*
X85866907Y-93422796D01*
X85745404Y-93473000D01*
X75355067Y-93473000D01*
X75235147Y-93423205D01*
X74766907Y-93422796D01*
X74334154Y-93601606D01*
X74002770Y-93932412D01*
X73823205Y-94364853D01*
X73822796Y-94833093D01*
X71258960Y-94833093D01*
X71235147Y-94823205D01*
X70766907Y-94822796D01*
X70334154Y-95001606D01*
X70287677Y-95048002D01*
X69255058Y-95048002D01*
X69135138Y-94998207D01*
X68666898Y-94997798D01*
X68234145Y-95176608D01*
X67902761Y-95507414D01*
X67834986Y-95670635D01*
X67567588Y-95402770D01*
X67446172Y-95352354D01*
X67156909Y-95063091D01*
X66791284Y-94818788D01*
X66360000Y-94733000D01*
X56742069Y-94733000D01*
X56599344Y-94590026D01*
X56762654Y-94427000D01*
X68444933Y-94427000D01*
X68564853Y-94476795D01*
X69033093Y-94477204D01*
X69465846Y-94298394D01*
X69797230Y-93967588D01*
X69976795Y-93535147D01*
X69977204Y-93066907D01*
X69798394Y-92634154D01*
X69467588Y-92302770D01*
X69035147Y-92123205D01*
X68566907Y-92122796D01*
X68445404Y-92173000D01*
X56722104Y-92173000D01*
X56448399Y-91898817D01*
X56523412Y-91823804D01*
X56408970Y-91709362D01*
X56669580Y-91618077D01*
X56886045Y-91030167D01*
X56861049Y-90404172D01*
X56669580Y-89941923D01*
X56408968Y-89850637D01*
X55479605Y-90780000D01*
X55493748Y-90794143D01*
X55314143Y-90973748D01*
X55300000Y-90959605D01*
X55285858Y-90973748D01*
X55106253Y-90794143D01*
X55120395Y-90780000D01*
X54191032Y-89850637D01*
X53930420Y-89941923D01*
X53713955Y-90529833D01*
X53738951Y-91155828D01*
X53930420Y-91618077D01*
X54191030Y-91709362D01*
X54076588Y-91823804D01*
X54151839Y-91899055D01*
X53760690Y-92289522D01*
X53483516Y-92957031D01*
X53482886Y-93679798D01*
X53758894Y-94347790D01*
X54000656Y-94589974D01*
X53760690Y-94829522D01*
X53483516Y-95497031D01*
X53482886Y-96219798D01*
X53732886Y-96824846D01*
X53536468Y-97112314D01*
X53466019Y-97460200D01*
X50516297Y-97460200D01*
X50594975Y-89671032D01*
X54370637Y-89671032D01*
X55300000Y-90600395D01*
X56229363Y-89671032D01*
X56138077Y-89410420D01*
X55550167Y-89193955D01*
X54924172Y-89218951D01*
X54461923Y-89410420D01*
X54370637Y-89671032D01*
X50594975Y-89671032D01*
X50619601Y-87233093D01*
X52822796Y-87233093D01*
X53001606Y-87665846D01*
X53332412Y-87997230D01*
X53764853Y-88176795D01*
X54233093Y-88177204D01*
X54354596Y-88127000D01*
X61709500Y-88127000D01*
X61674153Y-88141605D01*
X61342769Y-88472411D01*
X61163204Y-88904852D01*
X61162795Y-89373092D01*
X61341605Y-89805845D01*
X61672411Y-90137229D01*
X62104852Y-90316794D01*
X62573092Y-90317203D01*
X62694595Y-90266999D01*
X69294934Y-90266999D01*
X69414854Y-90316794D01*
X69883094Y-90317203D01*
X70315847Y-90138393D01*
X70647231Y-89807587D01*
X70826796Y-89375146D01*
X70827013Y-89127000D01*
X71208541Y-89127000D01*
X71002770Y-89332412D01*
X70823205Y-89764853D01*
X70822796Y-90233093D01*
X71001606Y-90665846D01*
X71332412Y-90997230D01*
X71764853Y-91176795D01*
X72233093Y-91177204D01*
X72354596Y-91127000D01*
X94828186Y-91127000D01*
X95498095Y-91796910D01*
X95863720Y-92041212D01*
X96295004Y-92127000D01*
X101644933Y-92127000D01*
X101764853Y-92176795D01*
X102233093Y-92177204D01*
X102665846Y-91998394D01*
X102997230Y-91667588D01*
X103176795Y-91235147D01*
X103177204Y-90766907D01*
X102998394Y-90334154D01*
X102667588Y-90002770D01*
X102235147Y-89823205D01*
X101766907Y-89822796D01*
X101645404Y-89873000D01*
X96761823Y-89873000D01*
X96091913Y-89203091D01*
X95726288Y-88958788D01*
X95295004Y-88873000D01*
X86076980Y-88873000D01*
X86077204Y-88616907D01*
X85898394Y-88184154D01*
X85567588Y-87852770D01*
X85446173Y-87802354D01*
X84846909Y-87203091D01*
X84691042Y-87098944D01*
X84981281Y-87041212D01*
X85346906Y-86796909D01*
X85410395Y-86733420D01*
X85514853Y-86776795D01*
X85983093Y-86777204D01*
X86104596Y-86727000D01*
X92600000Y-86727000D01*
X93031284Y-86641212D01*
X93396909Y-86396909D01*
X93396910Y-86396908D01*
X93868032Y-85925787D01*
X93976202Y-85881092D01*
X94005819Y-85851527D01*
X94005819Y-85900000D01*
X94066971Y-86224997D01*
X94259044Y-86523486D01*
X94552114Y-86723732D01*
X94900000Y-86794181D01*
X100277121Y-86794181D01*
X100123205Y-87164853D01*
X100122796Y-87633093D01*
X100301606Y-88065846D01*
X100632412Y-88397230D01*
X101064853Y-88576795D01*
X101533093Y-88577204D01*
X101654596Y-88527000D01*
X116944933Y-88527000D01*
X117064853Y-88576795D01*
X117533093Y-88577204D01*
X117965846Y-88398394D01*
X118297230Y-88067588D01*
X118476795Y-87635147D01*
X118477204Y-87166907D01*
X118298394Y-86734154D01*
X117967588Y-86402770D01*
X117535147Y-86223205D01*
X117066907Y-86222796D01*
X116945404Y-86273000D01*
X102106572Y-86273000D01*
X102123732Y-86247886D01*
X102194181Y-85900000D01*
X102194181Y-82945230D01*
X104016632Y-82945230D01*
X104339766Y-83727274D01*
X104937578Y-84326131D01*
X105719057Y-84650630D01*
X106565230Y-84651368D01*
X107347274Y-84328234D01*
X107744168Y-83932033D01*
X108137578Y-84326131D01*
X108919057Y-84650630D01*
X109765230Y-84651368D01*
X110547274Y-84328234D01*
X111146131Y-83730422D01*
X111470630Y-82948943D01*
X111471368Y-82102770D01*
X111148234Y-81320726D01*
X110550422Y-80721869D01*
X109768943Y-80397370D01*
X108922770Y-80396632D01*
X108140726Y-80719766D01*
X107743832Y-81115967D01*
X107350422Y-80721869D01*
X106568943Y-80397370D01*
X105722770Y-80396632D01*
X104940726Y-80719766D01*
X104341869Y-81317578D01*
X104017370Y-82099057D01*
X104016632Y-82945230D01*
X102194181Y-82945230D01*
X102194181Y-77400000D01*
X102133029Y-77075003D01*
X101940956Y-76776514D01*
X101647886Y-76576268D01*
X101300000Y-76505819D01*
X94900000Y-76505819D01*
X94575003Y-76566971D01*
X94276514Y-76759044D01*
X94173883Y-76909250D01*
X94067588Y-76802770D01*
X93635147Y-76623205D01*
X93166907Y-76622796D01*
X93045404Y-76673000D01*
X91800000Y-76673000D01*
X91368716Y-76758788D01*
X91003091Y-77003091D01*
X86154163Y-81852019D01*
X86034154Y-81901606D01*
X85702770Y-82232412D01*
X85523205Y-82664853D01*
X85522796Y-83133093D01*
X85701606Y-83565846D01*
X86032412Y-83897230D01*
X86464853Y-84076795D01*
X86933093Y-84077204D01*
X87365846Y-83898394D01*
X87697230Y-83567588D01*
X87747646Y-83446172D01*
X92266818Y-78927000D01*
X93044933Y-78927000D01*
X93164853Y-78976795D01*
X93633093Y-78977204D01*
X94005819Y-78823197D01*
X94005819Y-83913392D01*
X93977944Y-83885468D01*
X93545503Y-83705903D01*
X93077263Y-83705494D01*
X92644510Y-83884304D01*
X92313126Y-84215110D01*
X92257778Y-84348404D01*
X92133182Y-84473000D01*
X86105067Y-84473000D01*
X85985147Y-84423205D01*
X85516907Y-84422796D01*
X85350126Y-84491709D01*
X85185146Y-84423203D01*
X84716906Y-84422794D01*
X84284153Y-84601604D01*
X84012283Y-84873000D01*
X83000000Y-84873000D01*
X82568716Y-84958788D01*
X82203091Y-85203090D01*
X81533182Y-85873000D01*
X56635554Y-85873000D01*
X56796718Y-85428721D01*
X56770315Y-84838542D01*
X56595259Y-84415920D01*
X56343958Y-84335647D01*
X55479605Y-85200000D01*
X55493748Y-85214143D01*
X55314143Y-85393748D01*
X55300000Y-85379605D01*
X55285858Y-85393748D01*
X55106253Y-85214143D01*
X55120395Y-85200000D01*
X54256042Y-84335647D01*
X54004741Y-84415920D01*
X53803282Y-84971279D01*
X53829685Y-85561458D01*
X53937997Y-85822945D01*
X53766907Y-85822796D01*
X53334154Y-86001606D01*
X53002770Y-86332412D01*
X52823205Y-86764853D01*
X52822796Y-87233093D01*
X50619601Y-87233093D01*
X50650682Y-84156042D01*
X54435647Y-84156042D01*
X55300000Y-85020395D01*
X56164353Y-84156042D01*
X56084080Y-83904741D01*
X55528721Y-83703282D01*
X54938542Y-83729685D01*
X54515920Y-83904741D01*
X54435647Y-84156042D01*
X50650682Y-84156042D01*
X50685258Y-80733093D01*
X51022796Y-80733093D01*
X51201606Y-81165846D01*
X51532412Y-81497230D01*
X51875224Y-81639578D01*
X51823205Y-81764853D01*
X51822796Y-82233093D01*
X52001606Y-82665846D01*
X52332412Y-82997230D01*
X52764853Y-83176795D01*
X53233093Y-83177204D01*
X53354596Y-83127000D01*
X82000000Y-83127000D01*
X82431284Y-83041212D01*
X82796909Y-82796909D01*
X83466819Y-82127000D01*
X84644933Y-82127000D01*
X84764853Y-82176795D01*
X85233093Y-82177204D01*
X85665846Y-81998394D01*
X85997230Y-81667588D01*
X86176795Y-81235147D01*
X86177204Y-80766907D01*
X85998394Y-80334154D01*
X85667588Y-80002770D01*
X85235147Y-79823205D01*
X84766907Y-79822796D01*
X84645404Y-79873000D01*
X83000000Y-79873000D01*
X82568716Y-79958788D01*
X82203091Y-80203090D01*
X81533182Y-80873000D01*
X57015085Y-80873000D01*
X57026700Y-80845029D01*
X57027299Y-80157986D01*
X56764933Y-79523011D01*
X56279544Y-79036774D01*
X55645029Y-78773300D01*
X54957986Y-78772701D01*
X54323011Y-79035067D01*
X53984488Y-79373000D01*
X52555067Y-79373000D01*
X52435147Y-79323205D01*
X51966907Y-79322796D01*
X51534154Y-79501606D01*
X51202770Y-79832412D01*
X51023205Y-80264853D01*
X51022796Y-80733093D01*
X50685258Y-80733093D01*
X50731632Y-76142014D01*
X53572701Y-76142014D01*
X53835067Y-76776989D01*
X54320456Y-77263226D01*
X54954971Y-77526700D01*
X55642014Y-77527299D01*
X56276989Y-77264933D01*
X56763226Y-76779544D01*
X57026700Y-76145029D01*
X57027299Y-75457986D01*
X57022029Y-75445230D01*
X104016632Y-75445230D01*
X104339766Y-76227274D01*
X104937578Y-76826131D01*
X105719057Y-77150630D01*
X106565230Y-77151368D01*
X107347274Y-76828234D01*
X107744168Y-76432033D01*
X108137578Y-76826131D01*
X108919057Y-77150630D01*
X109765230Y-77151368D01*
X110547274Y-76828234D01*
X111146131Y-76230422D01*
X111470630Y-75448943D01*
X111471368Y-74602770D01*
X111148234Y-73820726D01*
X110550422Y-73221869D01*
X109768943Y-72897370D01*
X108922770Y-72896632D01*
X108140726Y-73219766D01*
X107743832Y-73615967D01*
X107350422Y-73221869D01*
X106568943Y-72897370D01*
X105722770Y-72896632D01*
X104940726Y-73219766D01*
X104341869Y-73817578D01*
X104017370Y-74599057D01*
X104016632Y-75445230D01*
X57022029Y-75445230D01*
X56764933Y-74823011D01*
X56279544Y-74336774D01*
X55645029Y-74073300D01*
X54957986Y-74072701D01*
X54323011Y-74335067D01*
X53836774Y-74820456D01*
X53573300Y-75454971D01*
X53572701Y-76142014D01*
X50731632Y-76142014D01*
X50778076Y-71543958D01*
X54335647Y-71543958D01*
X54415920Y-71795259D01*
X54971279Y-71996718D01*
X55561458Y-71970315D01*
X55984080Y-71795259D01*
X56064353Y-71543958D01*
X55200000Y-70679605D01*
X54335647Y-71543958D01*
X50778076Y-71543958D01*
X50790932Y-70271279D01*
X53703282Y-70271279D01*
X53729685Y-70861458D01*
X53904741Y-71284080D01*
X54156042Y-71364353D01*
X55020395Y-70500000D01*
X55379605Y-70500000D01*
X56243958Y-71364353D01*
X56495259Y-71284080D01*
X56696718Y-70728721D01*
X56670315Y-70138542D01*
X56654351Y-70100000D01*
X70705819Y-70100000D01*
X70705819Y-73300000D01*
X70766971Y-73624997D01*
X70959044Y-73923486D01*
X71252114Y-74123732D01*
X71600000Y-74194181D01*
X75000000Y-74194181D01*
X75324997Y-74133029D01*
X75623486Y-73940956D01*
X75823732Y-73647886D01*
X75894181Y-73300000D01*
X75894181Y-73233093D01*
X76822796Y-73233093D01*
X77001606Y-73665846D01*
X77332412Y-73997230D01*
X77764853Y-74176795D01*
X78233093Y-74177204D01*
X78354596Y-74127000D01*
X83144933Y-74127000D01*
X83264853Y-74176795D01*
X83733093Y-74177204D01*
X84165846Y-73998394D01*
X84497230Y-73667588D01*
X84676795Y-73235147D01*
X84677204Y-72766907D01*
X84498394Y-72334154D01*
X84167588Y-72002770D01*
X84055769Y-71956339D01*
X84276989Y-71864933D01*
X84763226Y-71379544D01*
X85026700Y-70745029D01*
X85027299Y-70057986D01*
X84764933Y-69423011D01*
X84279544Y-68936774D01*
X83645029Y-68673300D01*
X82957986Y-68672701D01*
X82323011Y-68935067D01*
X81836774Y-69420456D01*
X81573300Y-70054971D01*
X81572701Y-70742014D01*
X81835067Y-71376989D01*
X82320456Y-71863226D01*
X82343994Y-71873000D01*
X78355067Y-71873000D01*
X78235147Y-71823205D01*
X77766907Y-71822796D01*
X77334154Y-72001606D01*
X77002770Y-72332412D01*
X76823205Y-72764853D01*
X76822796Y-73233093D01*
X75894181Y-73233093D01*
X75894181Y-70100000D01*
X75833029Y-69775003D01*
X75640956Y-69476514D01*
X75347886Y-69276268D01*
X75000000Y-69205819D01*
X71600000Y-69205819D01*
X71275003Y-69266971D01*
X70976514Y-69459044D01*
X70776268Y-69752114D01*
X70705819Y-70100000D01*
X56654351Y-70100000D01*
X56495259Y-69715920D01*
X56243958Y-69635647D01*
X55379605Y-70500000D01*
X55020395Y-70500000D01*
X54156042Y-69635647D01*
X53904741Y-69715920D01*
X53703282Y-70271279D01*
X50790932Y-70271279D01*
X50799166Y-69456042D01*
X54335647Y-69456042D01*
X55200000Y-70320395D01*
X56064353Y-69456042D01*
X55984080Y-69204741D01*
X55428721Y-69003282D01*
X54838542Y-69029685D01*
X54415920Y-69204741D01*
X54335647Y-69456042D01*
X50799166Y-69456042D01*
X50832642Y-66142014D01*
X53472701Y-66142014D01*
X53735067Y-66776989D01*
X54220456Y-67263226D01*
X54854971Y-67526700D01*
X55542014Y-67527299D01*
X56176989Y-67264933D01*
X56450384Y-66992014D01*
X81572701Y-66992014D01*
X81835067Y-67626989D01*
X82320456Y-68113226D01*
X82954971Y-68376700D01*
X83642014Y-68377299D01*
X84276989Y-68114933D01*
X84763226Y-67629544D01*
X85026700Y-66995029D01*
X85027299Y-66307986D01*
X84764933Y-65673011D01*
X84279544Y-65186774D01*
X83645029Y-64923300D01*
X82957986Y-64922701D01*
X82323011Y-65185067D01*
X81836774Y-65670456D01*
X81573300Y-66304971D01*
X81572701Y-66992014D01*
X56450384Y-66992014D01*
X56663226Y-66779544D01*
X56926700Y-66145029D01*
X56927299Y-65457986D01*
X56664933Y-64823011D01*
X56179544Y-64336774D01*
X55545029Y-64073300D01*
X54857986Y-64072701D01*
X54223011Y-64335067D01*
X53736774Y-64820456D01*
X53473300Y-65454971D01*
X53472701Y-66142014D01*
X50832642Y-66142014D01*
X50880116Y-61442014D01*
X53472701Y-61442014D01*
X53735067Y-62076989D01*
X54220456Y-62563226D01*
X54854971Y-62826700D01*
X55542014Y-62827299D01*
X56176989Y-62564933D01*
X56663226Y-62079544D01*
X56926700Y-61445029D01*
X56927299Y-60757986D01*
X56664933Y-60123011D01*
X56542137Y-60000000D01*
X70705819Y-60000000D01*
X70705819Y-63200000D01*
X70766971Y-63524997D01*
X70959044Y-63823486D01*
X71252114Y-64023732D01*
X71600000Y-64094181D01*
X75000000Y-64094181D01*
X75324997Y-64033029D01*
X75623486Y-63840956D01*
X75823732Y-63547886D01*
X75885672Y-63242014D01*
X81572701Y-63242014D01*
X81835067Y-63876989D01*
X82320456Y-64363226D01*
X82954971Y-64626700D01*
X83642014Y-64627299D01*
X84276989Y-64364933D01*
X84392122Y-64250000D01*
X94005819Y-64250000D01*
X94005819Y-72750000D01*
X94066971Y-73074997D01*
X94259044Y-73373486D01*
X94552114Y-73573732D01*
X94900000Y-73644181D01*
X101300000Y-73644181D01*
X101624997Y-73583029D01*
X101923486Y-73390956D01*
X102123732Y-73097886D01*
X102194181Y-72750000D01*
X102194181Y-67945230D01*
X104016632Y-67945230D01*
X104339766Y-68727274D01*
X104937578Y-69326131D01*
X105719057Y-69650630D01*
X106565230Y-69651368D01*
X107347274Y-69328234D01*
X107744168Y-68932033D01*
X108137578Y-69326131D01*
X108919057Y-69650630D01*
X109765230Y-69651368D01*
X110547274Y-69328234D01*
X111146131Y-68730422D01*
X111470630Y-67948943D01*
X111471368Y-67102770D01*
X111148234Y-66320726D01*
X110550422Y-65721869D01*
X109768943Y-65397370D01*
X108922770Y-65396632D01*
X108140726Y-65719766D01*
X107743832Y-66115967D01*
X107350422Y-65721869D01*
X106568943Y-65397370D01*
X105722770Y-65396632D01*
X104940726Y-65719766D01*
X104341869Y-66317578D01*
X104017370Y-67099057D01*
X104016632Y-67945230D01*
X102194181Y-67945230D01*
X102194181Y-64250000D01*
X102133029Y-63925003D01*
X101940956Y-63626514D01*
X101647886Y-63426268D01*
X101300000Y-63355819D01*
X94900000Y-63355819D01*
X94575003Y-63416971D01*
X94276514Y-63609044D01*
X94076268Y-63902114D01*
X94005819Y-64250000D01*
X84392122Y-64250000D01*
X84763226Y-63879544D01*
X85026700Y-63245029D01*
X85027299Y-62557986D01*
X84764933Y-61923011D01*
X84279544Y-61436774D01*
X83645029Y-61173300D01*
X82957986Y-61172701D01*
X82323011Y-61435067D01*
X81836774Y-61920456D01*
X81573300Y-62554971D01*
X81572701Y-63242014D01*
X75885672Y-63242014D01*
X75894181Y-63200000D01*
X75894181Y-60890544D01*
X96622571Y-60890544D01*
X96998877Y-61801275D01*
X97695060Y-62498674D01*
X98605133Y-62876569D01*
X99590544Y-62877429D01*
X100501275Y-62501123D01*
X101198674Y-61804940D01*
X101576569Y-60894867D01*
X101576961Y-60445230D01*
X104016632Y-60445230D01*
X104339766Y-61227274D01*
X104937578Y-61826131D01*
X105719057Y-62150630D01*
X106565230Y-62151368D01*
X107347274Y-61828234D01*
X107744168Y-61432033D01*
X108137578Y-61826131D01*
X108919057Y-62150630D01*
X109765230Y-62151368D01*
X110547274Y-61828234D01*
X111146131Y-61230422D01*
X111470630Y-60448943D01*
X111471368Y-59602770D01*
X111148234Y-58820726D01*
X110550422Y-58221869D01*
X109768943Y-57897370D01*
X108922770Y-57896632D01*
X108140726Y-58219766D01*
X107743832Y-58615967D01*
X107350422Y-58221869D01*
X106568943Y-57897370D01*
X105722770Y-57896632D01*
X104940726Y-58219766D01*
X104341869Y-58817578D01*
X104017370Y-59599057D01*
X104016632Y-60445230D01*
X101576961Y-60445230D01*
X101577429Y-59909456D01*
X101201123Y-58998725D01*
X100504940Y-58301326D01*
X99594867Y-57923431D01*
X98609456Y-57922571D01*
X97698725Y-58298877D01*
X97001326Y-58995060D01*
X96623431Y-59905133D01*
X96622571Y-60890544D01*
X75894181Y-60890544D01*
X75894181Y-60000000D01*
X75833029Y-59675003D01*
X75640956Y-59376514D01*
X75347886Y-59176268D01*
X75000000Y-59105819D01*
X71600000Y-59105819D01*
X71275003Y-59166971D01*
X70976514Y-59359044D01*
X70776268Y-59652114D01*
X70705819Y-60000000D01*
X56542137Y-60000000D01*
X56179544Y-59636774D01*
X55545029Y-59373300D01*
X54857986Y-59372701D01*
X54223011Y-59635067D01*
X53736774Y-60120456D01*
X53473300Y-60754971D01*
X53472701Y-61442014D01*
X50880116Y-61442014D01*
X50924540Y-57043958D01*
X54435647Y-57043958D01*
X54515920Y-57295259D01*
X55071279Y-57496718D01*
X55661458Y-57470315D01*
X56084080Y-57295259D01*
X56164353Y-57043958D01*
X55300000Y-56179605D01*
X54435647Y-57043958D01*
X50924540Y-57043958D01*
X50937396Y-55771279D01*
X53803282Y-55771279D01*
X53829685Y-56361458D01*
X54004741Y-56784080D01*
X54256042Y-56864353D01*
X55120395Y-56000000D01*
X55479605Y-56000000D01*
X56343958Y-56864353D01*
X56595259Y-56784080D01*
X56796718Y-56228721D01*
X56770315Y-55638542D01*
X56595259Y-55215920D01*
X56343958Y-55135647D01*
X55479605Y-56000000D01*
X55120395Y-56000000D01*
X54256042Y-55135647D01*
X54004741Y-55215920D01*
X53803282Y-55771279D01*
X50937396Y-55771279D01*
X50945630Y-54956042D01*
X54435647Y-54956042D01*
X55300000Y-55820395D01*
X56164353Y-54956042D01*
X56084080Y-54704741D01*
X55528721Y-54503282D01*
X54938542Y-54529685D01*
X54515920Y-54704741D01*
X54435647Y-54956042D01*
X50945630Y-54956042D01*
X50963368Y-53200000D01*
X70705819Y-53200000D01*
X70705819Y-56400000D01*
X70766971Y-56724997D01*
X70959044Y-57023486D01*
X71252114Y-57223732D01*
X71600000Y-57294181D01*
X75000000Y-57294181D01*
X75324997Y-57233029D01*
X75623486Y-57040956D01*
X75823732Y-56747886D01*
X75894181Y-56400000D01*
X75894181Y-53842014D01*
X81572701Y-53842014D01*
X81835067Y-54476989D01*
X82320456Y-54963226D01*
X82954971Y-55226700D01*
X83642014Y-55227299D01*
X84276989Y-54964933D01*
X84763226Y-54479544D01*
X85026700Y-53845029D01*
X85027299Y-53157986D01*
X84764933Y-52523011D01*
X84279544Y-52036774D01*
X83645029Y-51773300D01*
X82957986Y-51772701D01*
X82323011Y-52035067D01*
X81836774Y-52520456D01*
X81573300Y-53154971D01*
X81572701Y-53842014D01*
X75894181Y-53842014D01*
X75894181Y-53200000D01*
X75833029Y-52875003D01*
X75640956Y-52576514D01*
X75347886Y-52376268D01*
X75000000Y-52305819D01*
X71600000Y-52305819D01*
X71275003Y-52366971D01*
X70976514Y-52559044D01*
X70776268Y-52852114D01*
X70705819Y-53200000D01*
X50963368Y-53200000D01*
X50979106Y-51642014D01*
X53572701Y-51642014D01*
X53835067Y-52276989D01*
X54320456Y-52763226D01*
X54954971Y-53026700D01*
X55642014Y-53027299D01*
X56276989Y-52764933D01*
X56763226Y-52279544D01*
X57026700Y-51645029D01*
X57027299Y-50957986D01*
X56764933Y-50323011D01*
X56375696Y-49933093D01*
X74822796Y-49933093D01*
X75001606Y-50365846D01*
X75332412Y-50697230D01*
X75764853Y-50876795D01*
X76233093Y-50877204D01*
X76233587Y-50877000D01*
X81984816Y-50877000D01*
X82320456Y-51213226D01*
X82954971Y-51476700D01*
X83642014Y-51477299D01*
X84276989Y-51214933D01*
X84763226Y-50729544D01*
X85026700Y-50095029D01*
X85027152Y-49576999D01*
X93164895Y-49576999D01*
X93201606Y-49665846D01*
X93532412Y-49997230D01*
X93964853Y-50176795D01*
X94433093Y-50177204D01*
X94865846Y-49998394D01*
X95197230Y-49667588D01*
X95205819Y-49646903D01*
X95205819Y-55141243D01*
X95067588Y-55002770D01*
X94748428Y-54870243D01*
X94731284Y-54858788D01*
X94711237Y-54854800D01*
X94635147Y-54823205D01*
X94552032Y-54823132D01*
X94300000Y-54773000D01*
X87355056Y-54773000D01*
X87235136Y-54723205D01*
X86766896Y-54722796D01*
X86334143Y-54901606D01*
X86002759Y-55232412D01*
X85823194Y-55664853D01*
X85822785Y-56133093D01*
X86001595Y-56565846D01*
X86332401Y-56897230D01*
X86764842Y-57076795D01*
X87233082Y-57077204D01*
X87354585Y-57027000D01*
X93804106Y-57027000D01*
X94164853Y-57176795D01*
X94633093Y-57177204D01*
X95065846Y-56998394D01*
X95223032Y-56841482D01*
X95266971Y-57074997D01*
X95459044Y-57373486D01*
X95752114Y-57573732D01*
X96100000Y-57644181D01*
X102500000Y-57644181D01*
X102824997Y-57583029D01*
X103123486Y-57390956D01*
X103323732Y-57097886D01*
X103394181Y-56750000D01*
X103394181Y-52945230D01*
X104016632Y-52945230D01*
X104339766Y-53727274D01*
X104937578Y-54326131D01*
X105719057Y-54650630D01*
X106565230Y-54651368D01*
X107347274Y-54328234D01*
X107744168Y-53932033D01*
X108137578Y-54326131D01*
X108919057Y-54650630D01*
X109765230Y-54651368D01*
X110547274Y-54328234D01*
X111146131Y-53730422D01*
X111470630Y-52948943D01*
X111471368Y-52102770D01*
X111148234Y-51320726D01*
X110550422Y-50721869D01*
X109768943Y-50397370D01*
X108922770Y-50396632D01*
X108140726Y-50719766D01*
X107743832Y-51115967D01*
X107350422Y-50721869D01*
X106568943Y-50397370D01*
X105722770Y-50396632D01*
X104940726Y-50719766D01*
X104341869Y-51317578D01*
X104017370Y-52099057D01*
X104016632Y-52945230D01*
X103394181Y-52945230D01*
X103394181Y-48250000D01*
X103333029Y-47925003D01*
X103140956Y-47626514D01*
X102847886Y-47426268D01*
X102500000Y-47355819D01*
X96100000Y-47355819D01*
X95987457Y-47376995D01*
X96197230Y-47167588D01*
X96376795Y-46735147D01*
X96377204Y-46266907D01*
X96198394Y-45834154D01*
X95867588Y-45502770D01*
X95729017Y-45445230D01*
X104016632Y-45445230D01*
X104339766Y-46227274D01*
X104937578Y-46826131D01*
X105719057Y-47150630D01*
X106565230Y-47151368D01*
X107347274Y-46828234D01*
X107744168Y-46432033D01*
X108137578Y-46826131D01*
X108919057Y-47150630D01*
X109765230Y-47151368D01*
X110547274Y-46828234D01*
X111146131Y-46230422D01*
X111470630Y-45448943D01*
X111471368Y-44602770D01*
X111148234Y-43820726D01*
X110550422Y-43221869D01*
X109768943Y-42897370D01*
X108922770Y-42896632D01*
X108140726Y-43219766D01*
X107743832Y-43615967D01*
X107350422Y-43221869D01*
X106568943Y-42897370D01*
X105722770Y-42896632D01*
X104940726Y-43219766D01*
X104341869Y-43817578D01*
X104017370Y-44599057D01*
X104016632Y-45445230D01*
X95729017Y-45445230D01*
X95435147Y-45323205D01*
X94966907Y-45322796D01*
X94845404Y-45373000D01*
X86600000Y-45373000D01*
X86240270Y-45444555D01*
X86168715Y-45458788D01*
X85803090Y-45703091D01*
X85654161Y-45852020D01*
X85534154Y-45901606D01*
X85202770Y-46232412D01*
X85023205Y-46664853D01*
X85022796Y-47133093D01*
X85101264Y-47322999D01*
X84419171Y-47322999D01*
X84763226Y-46979544D01*
X85026700Y-46345029D01*
X85027299Y-45657986D01*
X84764933Y-45023011D01*
X84279544Y-44536774D01*
X83645029Y-44273300D01*
X82957986Y-44272701D01*
X82323011Y-44535067D01*
X81836774Y-45020456D01*
X81573300Y-45654971D01*
X81572701Y-46342014D01*
X81835067Y-46976989D01*
X82180474Y-47322999D01*
X77405068Y-47322999D01*
X77285148Y-47273204D01*
X76816908Y-47272795D01*
X76384155Y-47451605D01*
X76052771Y-47782411D01*
X75873206Y-48214852D01*
X75872937Y-48522889D01*
X75766907Y-48522796D01*
X75334154Y-48701606D01*
X75002770Y-49032412D01*
X74823205Y-49464853D01*
X74822796Y-49933093D01*
X56375696Y-49933093D01*
X56279544Y-49836774D01*
X55645029Y-49573300D01*
X54957986Y-49572701D01*
X54323011Y-49835067D01*
X53836774Y-50320456D01*
X53573300Y-50954971D01*
X53572701Y-51642014D01*
X50979106Y-51642014D01*
X51026581Y-46942014D01*
X53572701Y-46942014D01*
X53835067Y-47576989D01*
X54320456Y-48063226D01*
X54954971Y-48326700D01*
X55642014Y-48327299D01*
X56276989Y-48064933D01*
X56763226Y-47579544D01*
X57026700Y-46945029D01*
X57027299Y-46257986D01*
X56764933Y-45623011D01*
X56279544Y-45136774D01*
X55645029Y-44873300D01*
X54957986Y-44872701D01*
X54323011Y-45135067D01*
X53836774Y-45620456D01*
X53573300Y-46254971D01*
X53572701Y-46942014D01*
X51026581Y-46942014D01*
X51076597Y-41990544D01*
X52922571Y-41990544D01*
X53298877Y-42901275D01*
X53995060Y-43598674D01*
X54905133Y-43976569D01*
X55890544Y-43977429D01*
X56801275Y-43601123D01*
X57303273Y-43100000D01*
X70705819Y-43100000D01*
X70705819Y-46300000D01*
X70766971Y-46624997D01*
X70959044Y-46923486D01*
X71252114Y-47123732D01*
X71600000Y-47194181D01*
X75000000Y-47194181D01*
X75324997Y-47133029D01*
X75623486Y-46940956D01*
X75823732Y-46647886D01*
X75894181Y-46300000D01*
X75894181Y-43943958D01*
X89635647Y-43943958D01*
X89715920Y-44195259D01*
X90271279Y-44396718D01*
X90861458Y-44370315D01*
X91284080Y-44195259D01*
X91364353Y-43943958D01*
X90500000Y-43079605D01*
X89635647Y-43943958D01*
X75894181Y-43943958D01*
X75894181Y-43100000D01*
X75833029Y-42775003D01*
X75766285Y-42671279D01*
X89003282Y-42671279D01*
X89029685Y-43261458D01*
X89204741Y-43684080D01*
X89456042Y-43764353D01*
X90320395Y-42900000D01*
X90679605Y-42900000D01*
X91543958Y-43764353D01*
X91795259Y-43684080D01*
X91955620Y-43242014D01*
X93472701Y-43242014D01*
X93735067Y-43876989D01*
X94220456Y-44363226D01*
X94854971Y-44626700D01*
X95542014Y-44627299D01*
X96176989Y-44364933D01*
X96663226Y-43879544D01*
X96926700Y-43245029D01*
X96926702Y-43242014D01*
X98172701Y-43242014D01*
X98435067Y-43876989D01*
X98920456Y-44363226D01*
X99554971Y-44626700D01*
X100242014Y-44627299D01*
X100876989Y-44364933D01*
X101363226Y-43879544D01*
X101626700Y-43245029D01*
X101627299Y-42557986D01*
X101364933Y-41923011D01*
X100879544Y-41436774D01*
X100245029Y-41173300D01*
X99557986Y-41172701D01*
X98923011Y-41435067D01*
X98436774Y-41920456D01*
X98173300Y-42554971D01*
X98172701Y-43242014D01*
X96926702Y-43242014D01*
X96927299Y-42557986D01*
X96664933Y-41923011D01*
X96179544Y-41436774D01*
X95545029Y-41173300D01*
X94857986Y-41172701D01*
X94223011Y-41435067D01*
X93736774Y-41920456D01*
X93473300Y-42554971D01*
X93472701Y-43242014D01*
X91955620Y-43242014D01*
X91996718Y-43128721D01*
X91970315Y-42538542D01*
X91795259Y-42115920D01*
X91543958Y-42035647D01*
X90679605Y-42900000D01*
X90320395Y-42900000D01*
X89456042Y-42035647D01*
X89204741Y-42115920D01*
X89003282Y-42671279D01*
X75766285Y-42671279D01*
X75640956Y-42476514D01*
X75347886Y-42276268D01*
X75000000Y-42205819D01*
X71600000Y-42205819D01*
X71275003Y-42266971D01*
X70976514Y-42459044D01*
X70776268Y-42752114D01*
X70705819Y-43100000D01*
X57303273Y-43100000D01*
X57498674Y-42904940D01*
X57876569Y-41994867D01*
X57876690Y-41856042D01*
X89635647Y-41856042D01*
X90500000Y-42720395D01*
X91364353Y-41856042D01*
X91284080Y-41604741D01*
X90728721Y-41403282D01*
X90138542Y-41429685D01*
X89715920Y-41604741D01*
X89635647Y-41856042D01*
X57876690Y-41856042D01*
X57877429Y-41009456D01*
X57501123Y-40098725D01*
X56804940Y-39401326D01*
X55894867Y-39023431D01*
X54909456Y-39022571D01*
X53998725Y-39398877D01*
X53301326Y-40095060D01*
X52923431Y-41005133D01*
X52922571Y-41990544D01*
X51076597Y-41990544D01*
X51117391Y-37952000D01*
X120727808Y-37952000D01*
X120036420Y-38642182D01*
X120036420Y-38642182D01*
G37*
X120036420Y-38642182D02*
X119597500Y-39699219D01*
X119596501Y-40843760D01*
X120033576Y-41901561D01*
X120842182Y-42711580D01*
X121899219Y-43150500D01*
X123043760Y-43151499D01*
X124101561Y-42714424D01*
X124911580Y-41905818D01*
X125048000Y-41577282D01*
X125048000Y-85969717D01*
X124914424Y-85646439D01*
X124105818Y-84836420D01*
X123048781Y-84397500D01*
X121904240Y-84396501D01*
X120846439Y-84833576D01*
X120036420Y-85642182D01*
X119597500Y-86699219D01*
X119596501Y-87843760D01*
X120033576Y-88901561D01*
X120842182Y-89711580D01*
X121899219Y-90150500D01*
X123043760Y-90151499D01*
X124101561Y-89714424D01*
X124911580Y-88905818D01*
X125048000Y-88577282D01*
X125048000Y-113976323D01*
X124884424Y-113580439D01*
X124075818Y-112770420D01*
X123018781Y-112331500D01*
X121874240Y-112330501D01*
X120816439Y-112767576D01*
X120006420Y-113576182D01*
X119567500Y-114633219D01*
X119566501Y-115777760D01*
X120003576Y-116835561D01*
X120812182Y-117645580D01*
X121869219Y-118084500D01*
X123013760Y-118085499D01*
X124071561Y-117648424D01*
X124881580Y-116839818D01*
X125048000Y-116439034D01*
X125048000Y-130976323D01*
X124884424Y-130580439D01*
X124075818Y-129770420D01*
X123018781Y-129331500D01*
X121874240Y-129330501D01*
X120816439Y-129767576D01*
X120006420Y-130576182D01*
X119567500Y-131633219D01*
X119566501Y-132777760D01*
X120003576Y-133835561D01*
X120812182Y-134645580D01*
X121781317Y-135048000D01*
X53861768Y-135048000D01*
X54701275Y-134701123D01*
X55398674Y-134004940D01*
X55776569Y-133094867D01*
X55777321Y-132233093D01*
X80322796Y-132233093D01*
X80501606Y-132665846D01*
X80832412Y-132997230D01*
X81264853Y-133176795D01*
X81733093Y-133177204D01*
X81854596Y-133127000D01*
X88144933Y-133127000D01*
X88264853Y-133176795D01*
X88733093Y-133177204D01*
X89165846Y-132998394D01*
X89273884Y-132890544D01*
X98522571Y-132890544D01*
X98898877Y-133801275D01*
X99595060Y-134498674D01*
X100505133Y-134876569D01*
X101490544Y-134877429D01*
X102401275Y-134501123D01*
X103098674Y-133804940D01*
X103476569Y-132894867D01*
X103477429Y-131909456D01*
X103101123Y-130998725D01*
X102404940Y-130301326D01*
X101494867Y-129923431D01*
X100509456Y-129922571D01*
X99598725Y-130298877D01*
X98901326Y-130995060D01*
X98523431Y-131905133D01*
X98522571Y-132890544D01*
X89273884Y-132890544D01*
X89497230Y-132667588D01*
X89676795Y-132235147D01*
X89677204Y-131766907D01*
X89498394Y-131334154D01*
X89457806Y-131293495D01*
X89487790Y-131281106D01*
X89729974Y-131039344D01*
X89969522Y-131279310D01*
X90637031Y-131556484D01*
X91359798Y-131557114D01*
X92027790Y-131281106D01*
X92539310Y-130770478D01*
X92816484Y-130102969D01*
X92817114Y-129380202D01*
X92541106Y-128712210D01*
X92148399Y-128318817D01*
X92223412Y-128243804D01*
X92108970Y-128129362D01*
X92369580Y-128038077D01*
X92431748Y-127869230D01*
X104016632Y-127869230D01*
X104339766Y-128651274D01*
X104937578Y-129250131D01*
X105719057Y-129574630D01*
X106565230Y-129575368D01*
X107347274Y-129252234D01*
X107744168Y-128856033D01*
X108137578Y-129250131D01*
X108919057Y-129574630D01*
X109765230Y-129575368D01*
X110547274Y-129252234D01*
X111146131Y-128654422D01*
X111470630Y-127872943D01*
X111471368Y-127026770D01*
X111148234Y-126244726D01*
X110550422Y-125645869D01*
X109768943Y-125321370D01*
X108922770Y-125320632D01*
X108140726Y-125643766D01*
X107743832Y-126039967D01*
X107350422Y-125645869D01*
X106568943Y-125321370D01*
X105722770Y-125320632D01*
X104940726Y-125643766D01*
X104341869Y-126241578D01*
X104017370Y-127023057D01*
X104016632Y-127869230D01*
X92431748Y-127869230D01*
X92586045Y-127450167D01*
X92561049Y-126824172D01*
X92369580Y-126361923D01*
X92108968Y-126270637D01*
X91179605Y-127200000D01*
X91193748Y-127214143D01*
X91014143Y-127393748D01*
X91000000Y-127379605D01*
X90985858Y-127393748D01*
X90806253Y-127214143D01*
X90820395Y-127200000D01*
X90806253Y-127185858D01*
X90985858Y-127006253D01*
X91000000Y-127020395D01*
X91929363Y-126091032D01*
X91838077Y-125830420D01*
X91250167Y-125613955D01*
X90624172Y-125638951D01*
X90161923Y-125830420D01*
X90070638Y-126091030D01*
X89956196Y-125976588D01*
X89880945Y-126051839D01*
X89490478Y-125660690D01*
X88822969Y-125383516D01*
X88100202Y-125382886D01*
X87432210Y-125658894D01*
X87190026Y-125900656D01*
X86950478Y-125660690D01*
X86282969Y-125383516D01*
X85560202Y-125382886D01*
X84892210Y-125658894D01*
X84380690Y-126169522D01*
X84103516Y-126837031D01*
X84102886Y-127559798D01*
X84378894Y-128227790D01*
X84620656Y-128469974D01*
X84380690Y-128709522D01*
X84103516Y-129377031D01*
X84102886Y-130099798D01*
X84378894Y-130767790D01*
X84483921Y-130873000D01*
X81855067Y-130873000D01*
X81735147Y-130823205D01*
X81266907Y-130822796D01*
X80834154Y-131001606D01*
X80502770Y-131332412D01*
X80323205Y-131764853D01*
X80322796Y-132233093D01*
X55777321Y-132233093D01*
X55777429Y-132109456D01*
X55401123Y-131198725D01*
X54704940Y-130501326D01*
X53794867Y-130123431D01*
X52809456Y-130122571D01*
X51898725Y-130498877D01*
X51201326Y-131195060D01*
X50823431Y-132105133D01*
X50822571Y-133090544D01*
X51198877Y-134001275D01*
X51895060Y-134698674D01*
X52736331Y-135048000D01*
X50482000Y-135048000D01*
X50482000Y-128233093D01*
X56822796Y-128233093D01*
X57001606Y-128665846D01*
X57332412Y-128997230D01*
X57764853Y-129176795D01*
X58233093Y-129177204D01*
X58354596Y-129127000D01*
X72500000Y-129127000D01*
X72931284Y-129041212D01*
X73296909Y-128796909D01*
X74116978Y-127976840D01*
X74651916Y-127977307D01*
X75305274Y-127707345D01*
X75701741Y-127311569D01*
X75784890Y-127394718D01*
X75899447Y-127280161D01*
X75985852Y-127536643D01*
X76559336Y-127746458D01*
X77169460Y-127720839D01*
X77614148Y-127536643D01*
X77700553Y-127280161D01*
X77815110Y-127394718D01*
X77898512Y-127311316D01*
X78292096Y-127705588D01*
X78944982Y-127976690D01*
X79651916Y-127977307D01*
X80305274Y-127707345D01*
X80805588Y-127207904D01*
X81076690Y-126555018D01*
X81077307Y-125848084D01*
X80807345Y-125194726D01*
X80307904Y-124694412D01*
X79655018Y-124423310D01*
X78948084Y-124422693D01*
X78294726Y-124692655D01*
X77898259Y-125088431D01*
X77815110Y-125005282D01*
X77700553Y-125119839D01*
X77614148Y-124863357D01*
X77040664Y-124653542D01*
X76430540Y-124679161D01*
X75985852Y-124863357D01*
X75899447Y-125119839D01*
X75784890Y-125005282D01*
X75701488Y-125088684D01*
X75307904Y-124694412D01*
X74655018Y-124423310D01*
X73948084Y-124422693D01*
X73294726Y-124692655D01*
X72898259Y-125088431D01*
X72815110Y-125005282D01*
X72700553Y-125119839D01*
X72614148Y-124863357D01*
X72040664Y-124653542D01*
X71430540Y-124679161D01*
X70985852Y-124863357D01*
X70899447Y-125119839D01*
X70784890Y-125005282D01*
X70701488Y-125088684D01*
X70307904Y-124694412D01*
X69655018Y-124423310D01*
X68948084Y-124422693D01*
X68294726Y-124692655D01*
X68050011Y-124936943D01*
X67807904Y-124694412D01*
X67155018Y-124423310D01*
X66448084Y-124422693D01*
X65794726Y-124692655D01*
X65398259Y-125088431D01*
X65315110Y-125005282D01*
X65200553Y-125119839D01*
X65114148Y-124863357D01*
X64540664Y-124653542D01*
X63930540Y-124679161D01*
X63485852Y-124863357D01*
X63399447Y-125119839D01*
X63284890Y-125005282D01*
X63201488Y-125088684D01*
X62807904Y-124694412D01*
X62155018Y-124423310D01*
X61448084Y-124422693D01*
X60794726Y-124692655D01*
X60550011Y-124936943D01*
X60307904Y-124694412D01*
X59655018Y-124423310D01*
X58948084Y-124422693D01*
X58294726Y-124692655D01*
X57794412Y-125192096D01*
X57523310Y-125844982D01*
X57522693Y-126551916D01*
X57653910Y-126869485D01*
X57334154Y-127001606D01*
X57002770Y-127332412D01*
X56823205Y-127764853D01*
X56822796Y-128233093D01*
X50482000Y-128233093D01*
X50482000Y-116996303D01*
X50782402Y-117297230D01*
X51022915Y-117397100D01*
X51022796Y-117533093D01*
X51201606Y-117965846D01*
X51532412Y-118297230D01*
X51829616Y-118420640D01*
X51951597Y-118715856D01*
X52282403Y-119047240D01*
X52714844Y-119226805D01*
X52822801Y-119226899D01*
X52822796Y-119233093D01*
X53001606Y-119665846D01*
X53332412Y-119997230D01*
X53764853Y-120176795D01*
X54233093Y-120177204D01*
X54354596Y-120127000D01*
X58221970Y-120127000D01*
X58123205Y-120364853D01*
X58122796Y-120833093D01*
X58301606Y-121265846D01*
X58632412Y-121597230D01*
X59064853Y-121776795D01*
X59533093Y-121777204D01*
X59654596Y-121727000D01*
X63444933Y-121727000D01*
X63564853Y-121776795D01*
X64033093Y-121777204D01*
X64465846Y-121598394D01*
X64783474Y-121281320D01*
X104990285Y-121281320D01*
X105119533Y-121574123D01*
X105819806Y-121842388D01*
X106569435Y-121822250D01*
X107168467Y-121574123D01*
X107297715Y-121281320D01*
X108190285Y-121281320D01*
X108319533Y-121574123D01*
X109019806Y-121842388D01*
X109769435Y-121822250D01*
X110368467Y-121574123D01*
X110497715Y-121281320D01*
X109344000Y-120127605D01*
X108190285Y-121281320D01*
X107297715Y-121281320D01*
X106144000Y-120127605D01*
X104990285Y-121281320D01*
X64783474Y-121281320D01*
X64797230Y-121267588D01*
X64976795Y-120835147D01*
X64977204Y-120366907D01*
X64878076Y-120127000D01*
X64946973Y-120127000D01*
X65066893Y-120176795D01*
X65535133Y-120177204D01*
X65967886Y-119998394D01*
X66299270Y-119667588D01*
X66317449Y-119623806D01*
X104249612Y-119623806D01*
X104269750Y-120373435D01*
X104517877Y-120972467D01*
X104810680Y-121101715D01*
X105964395Y-119948000D01*
X106323605Y-119948000D01*
X107477320Y-121101715D01*
X107744000Y-120983998D01*
X108010680Y-121101715D01*
X109164395Y-119948000D01*
X109523605Y-119948000D01*
X110677320Y-121101715D01*
X110970123Y-120972467D01*
X111238388Y-120272194D01*
X111218250Y-119522565D01*
X110970123Y-118923533D01*
X110677320Y-118794285D01*
X109523605Y-119948000D01*
X109164395Y-119948000D01*
X108010680Y-118794285D01*
X107744000Y-118912002D01*
X107477320Y-118794285D01*
X106323605Y-119948000D01*
X105964395Y-119948000D01*
X104810680Y-118794285D01*
X104517877Y-118923533D01*
X104249612Y-119623806D01*
X66317449Y-119623806D01*
X66478835Y-119235147D01*
X66478895Y-119166969D01*
X66499874Y-119158300D01*
X66664853Y-119226805D01*
X67133093Y-119227214D01*
X67254596Y-119177010D01*
X76525726Y-119177010D01*
X76687754Y-119144781D01*
X76764853Y-119176795D01*
X77233093Y-119177204D01*
X77665846Y-118998394D01*
X77997230Y-118667588D01*
X78019199Y-118614680D01*
X104990285Y-118614680D01*
X106144000Y-119768395D01*
X107297715Y-118614680D01*
X108190285Y-118614680D01*
X109344000Y-119768395D01*
X110497715Y-118614680D01*
X110368467Y-118321877D01*
X109668194Y-118053612D01*
X108918565Y-118073750D01*
X108319533Y-118321877D01*
X108190285Y-118614680D01*
X107297715Y-118614680D01*
X107168467Y-118321877D01*
X106468194Y-118053612D01*
X105718565Y-118073750D01*
X105119533Y-118321877D01*
X104990285Y-118614680D01*
X78019199Y-118614680D01*
X78176795Y-118235147D01*
X78177204Y-117766907D01*
X77998394Y-117334154D01*
X77667588Y-117002770D01*
X77235147Y-116823205D01*
X76766907Y-116822796D01*
X76645404Y-116873000D01*
X76575736Y-116873000D01*
X76324320Y-116923010D01*
X69515599Y-116923010D01*
X69676695Y-116535047D01*
X69676710Y-116517863D01*
X69965846Y-116398394D01*
X70287637Y-116077164D01*
X70333093Y-116077204D01*
X70454596Y-116027000D01*
X88144933Y-116027000D01*
X88264853Y-116076795D01*
X88733093Y-116077204D01*
X89165846Y-115898394D01*
X89497230Y-115567588D01*
X89676795Y-115135147D01*
X89677204Y-114666907D01*
X89498394Y-114234154D01*
X89167588Y-113902770D01*
X88735147Y-113723205D01*
X88266907Y-113722796D01*
X88145404Y-113773000D01*
X85438402Y-113773000D01*
X85298394Y-113434154D01*
X84967588Y-113102770D01*
X84535147Y-112923205D01*
X84066907Y-112922796D01*
X83945404Y-112973000D01*
X71255067Y-112973000D01*
X71135147Y-112923205D01*
X70666907Y-112922796D01*
X70234154Y-113101606D01*
X69902770Y-113432412D01*
X69764647Y-113765049D01*
X69434154Y-113901606D01*
X69112363Y-114222836D01*
X69066907Y-114222796D01*
X69066440Y-114222989D01*
X51105056Y-114222989D01*
X50985136Y-114173194D01*
X50516896Y-114172785D01*
X50482000Y-114187204D01*
X50482000Y-106242041D01*
X58819814Y-106242041D01*
X58998624Y-106674794D01*
X59329430Y-107006178D01*
X59761871Y-107185743D01*
X60230111Y-107186152D01*
X60373267Y-107127001D01*
X60610001Y-107127001D01*
X69500000Y-107127000D01*
X69931284Y-107041212D01*
X70296909Y-106796909D01*
X70519078Y-106574740D01*
X70764853Y-106676795D01*
X71233093Y-106677204D01*
X71665846Y-106498394D01*
X71997230Y-106167588D01*
X72014084Y-106127000D01*
X72708541Y-106127000D01*
X72502770Y-106332412D01*
X72323205Y-106764853D01*
X72322796Y-107233093D01*
X72501606Y-107665846D01*
X72832412Y-107997230D01*
X73264853Y-108176795D01*
X73682323Y-108177160D01*
X73801606Y-108465846D01*
X74132412Y-108797230D01*
X74564853Y-108976795D01*
X75033093Y-108977204D01*
X75154596Y-108927000D01*
X87633182Y-108927000D01*
X90252020Y-111545839D01*
X90301606Y-111665846D01*
X90632412Y-111997230D01*
X91064853Y-112176795D01*
X91533093Y-112177204D01*
X91965846Y-111998394D01*
X92297230Y-111667588D01*
X92476795Y-111235147D01*
X92477204Y-110766907D01*
X92298394Y-110334154D01*
X91967588Y-110002770D01*
X91846173Y-109952354D01*
X88896909Y-107003091D01*
X88531284Y-106758788D01*
X88100000Y-106673000D01*
X82638402Y-106673000D01*
X82498394Y-106334154D01*
X82309997Y-106145428D01*
X82665846Y-105998394D01*
X82997230Y-105667588D01*
X83176795Y-105235147D01*
X83177204Y-104766907D01*
X82998394Y-104334154D01*
X82667588Y-104002770D01*
X82235147Y-103823205D01*
X81766907Y-103822796D01*
X81645404Y-103873000D01*
X71500000Y-103873000D01*
X71068716Y-103958788D01*
X70703091Y-104203091D01*
X70480922Y-104425260D01*
X70235147Y-104323205D01*
X69766907Y-104322796D01*
X69334154Y-104501606D01*
X69002770Y-104832412D01*
X68985916Y-104873000D01*
X60610001Y-104873001D01*
X60330538Y-104873001D01*
X60232165Y-104832153D01*
X59763925Y-104831744D01*
X59331172Y-105010554D01*
X58999788Y-105341360D01*
X58820223Y-105773801D01*
X58819814Y-106242041D01*
X50482000Y-106242041D01*
X50482000Y-100855698D01*
X50516297Y-97460200D01*
X53466019Y-97460200D01*
X53466019Y-99339800D01*
X53527171Y-99664797D01*
X53719244Y-99963286D01*
X54012314Y-100163532D01*
X54360200Y-100233981D01*
X56239800Y-100233981D01*
X56564797Y-100172829D01*
X56863286Y-99980756D01*
X57063532Y-99687686D01*
X57096072Y-99527000D01*
X65744933Y-99527000D01*
X65864853Y-99576795D01*
X66333093Y-99577204D01*
X66765846Y-99398394D01*
X66801116Y-99363186D01*
X67034752Y-99597230D01*
X67467193Y-99776795D01*
X67935433Y-99777204D01*
X68056936Y-99727000D01*
X71449164Y-99727000D01*
X71405669Y-99831747D01*
X71405633Y-99873000D01*
X68855067Y-99873000D01*
X68735147Y-99823205D01*
X68266907Y-99822796D01*
X67834154Y-100001606D01*
X67502770Y-100332412D01*
X67323205Y-100764853D01*
X67322936Y-101073000D01*
X62855067Y-101073000D01*
X62735147Y-101023205D01*
X62266907Y-101022796D01*
X61834154Y-101201606D01*
X61502770Y-101532412D01*
X61323205Y-101964853D01*
X61322796Y-102433093D01*
X61501606Y-102865846D01*
X61832412Y-103197230D01*
X62264853Y-103376795D01*
X62733093Y-103377204D01*
X62854596Y-103327000D01*
X86944933Y-103327000D01*
X87064853Y-103376795D01*
X87533093Y-103377204D01*
X87965846Y-103198394D01*
X88297230Y-102867588D01*
X88476795Y-102435147D01*
X88477204Y-101966907D01*
X88298394Y-101534154D01*
X87967588Y-101202770D01*
X87535147Y-101023205D01*
X87066907Y-101022796D01*
X86945404Y-101073000D01*
X85176937Y-101073000D01*
X85177204Y-100766907D01*
X84998394Y-100334154D01*
X84667588Y-100002770D01*
X84235147Y-99823205D01*
X83766907Y-99822796D01*
X83645404Y-99873000D01*
X80177111Y-99873000D01*
X80177204Y-99766907D01*
X80160715Y-99727000D01*
X84933182Y-99727000D01*
X85803090Y-100596909D01*
X86095547Y-100792322D01*
X86168716Y-100841212D01*
X86600000Y-100927000D01*
X90644933Y-100927000D01*
X90764853Y-100976795D01*
X91233093Y-100977204D01*
X91665846Y-100798394D01*
X91997230Y-100467588D01*
X92176795Y-100035147D01*
X92177204Y-99566907D01*
X92149559Y-99500000D01*
X93922999Y-99500000D01*
X94180059Y-100792322D01*
X94912100Y-101887900D01*
X95968101Y-102943901D01*
X97063679Y-103675942D01*
X97229001Y-103708827D01*
X97229001Y-105177180D01*
X96954162Y-105452020D01*
X96834154Y-105501606D01*
X96502770Y-105832412D01*
X96323205Y-106264853D01*
X96322796Y-106733093D01*
X96501606Y-107165846D01*
X96832412Y-107497230D01*
X97264853Y-107676795D01*
X97733093Y-107677204D01*
X98165846Y-107498394D01*
X98497230Y-107167588D01*
X98547646Y-107046172D01*
X99152910Y-106440909D01*
X99397213Y-106075283D01*
X99411868Y-106001606D01*
X99483001Y-105643999D01*
X99483001Y-103933001D01*
X105416986Y-103933001D01*
X105376514Y-103959044D01*
X105176268Y-104252114D01*
X105105819Y-104600000D01*
X105105819Y-106800000D01*
X105166971Y-107124997D01*
X105359044Y-107423486D01*
X105652114Y-107623732D01*
X106000000Y-107694181D01*
X108200000Y-107694181D01*
X108524997Y-107633029D01*
X108823486Y-107440956D01*
X109023732Y-107147886D01*
X109094181Y-106800000D01*
X109094181Y-104600000D01*
X109033029Y-104275003D01*
X108840956Y-103976514D01*
X108777273Y-103933001D01*
X114199994Y-103933001D01*
X114199999Y-103933002D01*
X114866484Y-103800429D01*
X114805819Y-104100000D01*
X114805819Y-107300000D01*
X114866971Y-107624997D01*
X115059044Y-107923486D01*
X115352114Y-108123732D01*
X115700000Y-108194181D01*
X118900000Y-108194181D01*
X119224997Y-108133029D01*
X119523486Y-107940956D01*
X119723732Y-107647886D01*
X119794181Y-107300000D01*
X119794181Y-104100000D01*
X119733029Y-103775003D01*
X119540956Y-103476514D01*
X119247886Y-103276268D01*
X118900000Y-103205819D01*
X116195911Y-103205819D01*
X116587899Y-102943901D01*
X119687897Y-99843902D01*
X119687900Y-99843900D01*
X120419941Y-98748322D01*
X120677000Y-97456000D01*
X120677000Y-96500000D01*
X120419941Y-95207678D01*
X119687900Y-94112100D01*
X118592322Y-93380059D01*
X117300000Y-93123000D01*
X116007678Y-93380059D01*
X114912100Y-94112100D01*
X114180059Y-95207678D01*
X114032948Y-95947252D01*
X112801199Y-97179001D01*
X109094181Y-97179001D01*
X109094181Y-95400000D01*
X109033029Y-95075003D01*
X108840956Y-94776514D01*
X108547886Y-94576268D01*
X108200000Y-94505819D01*
X106000000Y-94505819D01*
X105675003Y-94566971D01*
X105376514Y-94759044D01*
X105176268Y-95052114D01*
X105105819Y-95400000D01*
X105105819Y-97179001D01*
X99754801Y-97179001D01*
X99687900Y-97112100D01*
X98592322Y-96380059D01*
X97300000Y-96122999D01*
X96007678Y-96380059D01*
X94912100Y-97112100D01*
X94180059Y-98207678D01*
X93922999Y-99500000D01*
X92149559Y-99500000D01*
X91998394Y-99134154D01*
X91667588Y-98802770D01*
X91235147Y-98623205D01*
X90766907Y-98622796D01*
X90645404Y-98673000D01*
X87066819Y-98673000D01*
X86920819Y-98527000D01*
X86944933Y-98527000D01*
X87064853Y-98576795D01*
X87533093Y-98577204D01*
X87965846Y-98398394D01*
X88297230Y-98067588D01*
X88476795Y-97635147D01*
X88477204Y-97166907D01*
X88298394Y-96734154D01*
X87967588Y-96402770D01*
X87535147Y-96223205D01*
X87066907Y-96222796D01*
X86945404Y-96273000D01*
X72161077Y-96273000D01*
X72176795Y-96235147D01*
X72177204Y-95766907D01*
X71998394Y-95334154D01*
X71667588Y-95002770D01*
X71258960Y-94833093D01*
X73822796Y-94833093D01*
X74001606Y-95265846D01*
X74332412Y-95597230D01*
X74764853Y-95776795D01*
X75233093Y-95777204D01*
X75354596Y-95727000D01*
X85744933Y-95727000D01*
X85864853Y-95776795D01*
X86333093Y-95777204D01*
X86765846Y-95598394D01*
X87097230Y-95267588D01*
X87276795Y-94835147D01*
X87277204Y-94366907D01*
X87098394Y-93934154D01*
X86767588Y-93602770D01*
X86335147Y-93423205D01*
X85866907Y-93422796D01*
X85745404Y-93473000D01*
X75355067Y-93473000D01*
X75235147Y-93423205D01*
X74766907Y-93422796D01*
X74334154Y-93601606D01*
X74002770Y-93932412D01*
X73823205Y-94364853D01*
X73822796Y-94833093D01*
X71258960Y-94833093D01*
X71235147Y-94823205D01*
X70766907Y-94822796D01*
X70334154Y-95001606D01*
X70287677Y-95048002D01*
X69255058Y-95048002D01*
X69135138Y-94998207D01*
X68666898Y-94997798D01*
X68234145Y-95176608D01*
X67902761Y-95507414D01*
X67834986Y-95670635D01*
X67567588Y-95402770D01*
X67446172Y-95352354D01*
X67156909Y-95063091D01*
X66791284Y-94818788D01*
X66360000Y-94733000D01*
X56742069Y-94733000D01*
X56599344Y-94590026D01*
X56762654Y-94427000D01*
X68444933Y-94427000D01*
X68564853Y-94476795D01*
X69033093Y-94477204D01*
X69465846Y-94298394D01*
X69797230Y-93967588D01*
X69976795Y-93535147D01*
X69977204Y-93066907D01*
X69798394Y-92634154D01*
X69467588Y-92302770D01*
X69035147Y-92123205D01*
X68566907Y-92122796D01*
X68445404Y-92173000D01*
X56722104Y-92173000D01*
X56448399Y-91898817D01*
X56523412Y-91823804D01*
X56408970Y-91709362D01*
X56669580Y-91618077D01*
X56886045Y-91030167D01*
X56861049Y-90404172D01*
X56669580Y-89941923D01*
X56408968Y-89850637D01*
X55479605Y-90780000D01*
X55493748Y-90794143D01*
X55314143Y-90973748D01*
X55300000Y-90959605D01*
X55285858Y-90973748D01*
X55106253Y-90794143D01*
X55120395Y-90780000D01*
X54191032Y-89850637D01*
X53930420Y-89941923D01*
X53713955Y-90529833D01*
X53738951Y-91155828D01*
X53930420Y-91618077D01*
X54191030Y-91709362D01*
X54076588Y-91823804D01*
X54151839Y-91899055D01*
X53760690Y-92289522D01*
X53483516Y-92957031D01*
X53482886Y-93679798D01*
X53758894Y-94347790D01*
X54000656Y-94589974D01*
X53760690Y-94829522D01*
X53483516Y-95497031D01*
X53482886Y-96219798D01*
X53732886Y-96824846D01*
X53536468Y-97112314D01*
X53466019Y-97460200D01*
X50516297Y-97460200D01*
X50594975Y-89671032D01*
X54370637Y-89671032D01*
X55300000Y-90600395D01*
X56229363Y-89671032D01*
X56138077Y-89410420D01*
X55550167Y-89193955D01*
X54924172Y-89218951D01*
X54461923Y-89410420D01*
X54370637Y-89671032D01*
X50594975Y-89671032D01*
X50619601Y-87233093D01*
X52822796Y-87233093D01*
X53001606Y-87665846D01*
X53332412Y-87997230D01*
X53764853Y-88176795D01*
X54233093Y-88177204D01*
X54354596Y-88127000D01*
X61709500Y-88127000D01*
X61674153Y-88141605D01*
X61342769Y-88472411D01*
X61163204Y-88904852D01*
X61162795Y-89373092D01*
X61341605Y-89805845D01*
X61672411Y-90137229D01*
X62104852Y-90316794D01*
X62573092Y-90317203D01*
X62694595Y-90266999D01*
X69294934Y-90266999D01*
X69414854Y-90316794D01*
X69883094Y-90317203D01*
X70315847Y-90138393D01*
X70647231Y-89807587D01*
X70826796Y-89375146D01*
X70827013Y-89127000D01*
X71208541Y-89127000D01*
X71002770Y-89332412D01*
X70823205Y-89764853D01*
X70822796Y-90233093D01*
X71001606Y-90665846D01*
X71332412Y-90997230D01*
X71764853Y-91176795D01*
X72233093Y-91177204D01*
X72354596Y-91127000D01*
X94828186Y-91127000D01*
X95498095Y-91796910D01*
X95863720Y-92041212D01*
X96295004Y-92127000D01*
X101644933Y-92127000D01*
X101764853Y-92176795D01*
X102233093Y-92177204D01*
X102665846Y-91998394D01*
X102997230Y-91667588D01*
X103176795Y-91235147D01*
X103177204Y-90766907D01*
X102998394Y-90334154D01*
X102667588Y-90002770D01*
X102235147Y-89823205D01*
X101766907Y-89822796D01*
X101645404Y-89873000D01*
X96761823Y-89873000D01*
X96091913Y-89203091D01*
X95726288Y-88958788D01*
X95295004Y-88873000D01*
X86076980Y-88873000D01*
X86077204Y-88616907D01*
X85898394Y-88184154D01*
X85567588Y-87852770D01*
X85446173Y-87802354D01*
X84846909Y-87203091D01*
X84691042Y-87098944D01*
X84981281Y-87041212D01*
X85346906Y-86796909D01*
X85410395Y-86733420D01*
X85514853Y-86776795D01*
X85983093Y-86777204D01*
X86104596Y-86727000D01*
X92600000Y-86727000D01*
X93031284Y-86641212D01*
X93396909Y-86396909D01*
X93396910Y-86396908D01*
X93868032Y-85925787D01*
X93976202Y-85881092D01*
X94005819Y-85851527D01*
X94005819Y-85900000D01*
X94066971Y-86224997D01*
X94259044Y-86523486D01*
X94552114Y-86723732D01*
X94900000Y-86794181D01*
X100277121Y-86794181D01*
X100123205Y-87164853D01*
X100122796Y-87633093D01*
X100301606Y-88065846D01*
X100632412Y-88397230D01*
X101064853Y-88576795D01*
X101533093Y-88577204D01*
X101654596Y-88527000D01*
X116944933Y-88527000D01*
X117064853Y-88576795D01*
X117533093Y-88577204D01*
X117965846Y-88398394D01*
X118297230Y-88067588D01*
X118476795Y-87635147D01*
X118477204Y-87166907D01*
X118298394Y-86734154D01*
X117967588Y-86402770D01*
X117535147Y-86223205D01*
X117066907Y-86222796D01*
X116945404Y-86273000D01*
X102106572Y-86273000D01*
X102123732Y-86247886D01*
X102194181Y-85900000D01*
X102194181Y-82945230D01*
X104016632Y-82945230D01*
X104339766Y-83727274D01*
X104937578Y-84326131D01*
X105719057Y-84650630D01*
X106565230Y-84651368D01*
X107347274Y-84328234D01*
X107744168Y-83932033D01*
X108137578Y-84326131D01*
X108919057Y-84650630D01*
X109765230Y-84651368D01*
X110547274Y-84328234D01*
X111146131Y-83730422D01*
X111470630Y-82948943D01*
X111471368Y-82102770D01*
X111148234Y-81320726D01*
X110550422Y-80721869D01*
X109768943Y-80397370D01*
X108922770Y-80396632D01*
X108140726Y-80719766D01*
X107743832Y-81115967D01*
X107350422Y-80721869D01*
X106568943Y-80397370D01*
X105722770Y-80396632D01*
X104940726Y-80719766D01*
X104341869Y-81317578D01*
X104017370Y-82099057D01*
X104016632Y-82945230D01*
X102194181Y-82945230D01*
X102194181Y-77400000D01*
X102133029Y-77075003D01*
X101940956Y-76776514D01*
X101647886Y-76576268D01*
X101300000Y-76505819D01*
X94900000Y-76505819D01*
X94575003Y-76566971D01*
X94276514Y-76759044D01*
X94173883Y-76909250D01*
X94067588Y-76802770D01*
X93635147Y-76623205D01*
X93166907Y-76622796D01*
X93045404Y-76673000D01*
X91800000Y-76673000D01*
X91368716Y-76758788D01*
X91003091Y-77003091D01*
X86154163Y-81852019D01*
X86034154Y-81901606D01*
X85702770Y-82232412D01*
X85523205Y-82664853D01*
X85522796Y-83133093D01*
X85701606Y-83565846D01*
X86032412Y-83897230D01*
X86464853Y-84076795D01*
X86933093Y-84077204D01*
X87365846Y-83898394D01*
X87697230Y-83567588D01*
X87747646Y-83446172D01*
X92266818Y-78927000D01*
X93044933Y-78927000D01*
X93164853Y-78976795D01*
X93633093Y-78977204D01*
X94005819Y-78823197D01*
X94005819Y-83913392D01*
X93977944Y-83885468D01*
X93545503Y-83705903D01*
X93077263Y-83705494D01*
X92644510Y-83884304D01*
X92313126Y-84215110D01*
X92257778Y-84348404D01*
X92133182Y-84473000D01*
X86105067Y-84473000D01*
X85985147Y-84423205D01*
X85516907Y-84422796D01*
X85350126Y-84491709D01*
X85185146Y-84423203D01*
X84716906Y-84422794D01*
X84284153Y-84601604D01*
X84012283Y-84873000D01*
X83000000Y-84873000D01*
X82568716Y-84958788D01*
X82203091Y-85203090D01*
X81533182Y-85873000D01*
X56635554Y-85873000D01*
X56796718Y-85428721D01*
X56770315Y-84838542D01*
X56595259Y-84415920D01*
X56343958Y-84335647D01*
X55479605Y-85200000D01*
X55493748Y-85214143D01*
X55314143Y-85393748D01*
X55300000Y-85379605D01*
X55285858Y-85393748D01*
X55106253Y-85214143D01*
X55120395Y-85200000D01*
X54256042Y-84335647D01*
X54004741Y-84415920D01*
X53803282Y-84971279D01*
X53829685Y-85561458D01*
X53937997Y-85822945D01*
X53766907Y-85822796D01*
X53334154Y-86001606D01*
X53002770Y-86332412D01*
X52823205Y-86764853D01*
X52822796Y-87233093D01*
X50619601Y-87233093D01*
X50650682Y-84156042D01*
X54435647Y-84156042D01*
X55300000Y-85020395D01*
X56164353Y-84156042D01*
X56084080Y-83904741D01*
X55528721Y-83703282D01*
X54938542Y-83729685D01*
X54515920Y-83904741D01*
X54435647Y-84156042D01*
X50650682Y-84156042D01*
X50685258Y-80733093D01*
X51022796Y-80733093D01*
X51201606Y-81165846D01*
X51532412Y-81497230D01*
X51875224Y-81639578D01*
X51823205Y-81764853D01*
X51822796Y-82233093D01*
X52001606Y-82665846D01*
X52332412Y-82997230D01*
X52764853Y-83176795D01*
X53233093Y-83177204D01*
X53354596Y-83127000D01*
X82000000Y-83127000D01*
X82431284Y-83041212D01*
X82796909Y-82796909D01*
X83466819Y-82127000D01*
X84644933Y-82127000D01*
X84764853Y-82176795D01*
X85233093Y-82177204D01*
X85665846Y-81998394D01*
X85997230Y-81667588D01*
X86176795Y-81235147D01*
X86177204Y-80766907D01*
X85998394Y-80334154D01*
X85667588Y-80002770D01*
X85235147Y-79823205D01*
X84766907Y-79822796D01*
X84645404Y-79873000D01*
X83000000Y-79873000D01*
X82568716Y-79958788D01*
X82203091Y-80203090D01*
X81533182Y-80873000D01*
X57015085Y-80873000D01*
X57026700Y-80845029D01*
X57027299Y-80157986D01*
X56764933Y-79523011D01*
X56279544Y-79036774D01*
X55645029Y-78773300D01*
X54957986Y-78772701D01*
X54323011Y-79035067D01*
X53984488Y-79373000D01*
X52555067Y-79373000D01*
X52435147Y-79323205D01*
X51966907Y-79322796D01*
X51534154Y-79501606D01*
X51202770Y-79832412D01*
X51023205Y-80264853D01*
X51022796Y-80733093D01*
X50685258Y-80733093D01*
X50731632Y-76142014D01*
X53572701Y-76142014D01*
X53835067Y-76776989D01*
X54320456Y-77263226D01*
X54954971Y-77526700D01*
X55642014Y-77527299D01*
X56276989Y-77264933D01*
X56763226Y-76779544D01*
X57026700Y-76145029D01*
X57027299Y-75457986D01*
X57022029Y-75445230D01*
X104016632Y-75445230D01*
X104339766Y-76227274D01*
X104937578Y-76826131D01*
X105719057Y-77150630D01*
X106565230Y-77151368D01*
X107347274Y-76828234D01*
X107744168Y-76432033D01*
X108137578Y-76826131D01*
X108919057Y-77150630D01*
X109765230Y-77151368D01*
X110547274Y-76828234D01*
X111146131Y-76230422D01*
X111470630Y-75448943D01*
X111471368Y-74602770D01*
X111148234Y-73820726D01*
X110550422Y-73221869D01*
X109768943Y-72897370D01*
X108922770Y-72896632D01*
X108140726Y-73219766D01*
X107743832Y-73615967D01*
X107350422Y-73221869D01*
X106568943Y-72897370D01*
X105722770Y-72896632D01*
X104940726Y-73219766D01*
X104341869Y-73817578D01*
X104017370Y-74599057D01*
X104016632Y-75445230D01*
X57022029Y-75445230D01*
X56764933Y-74823011D01*
X56279544Y-74336774D01*
X55645029Y-74073300D01*
X54957986Y-74072701D01*
X54323011Y-74335067D01*
X53836774Y-74820456D01*
X53573300Y-75454971D01*
X53572701Y-76142014D01*
X50731632Y-76142014D01*
X50778076Y-71543958D01*
X54335647Y-71543958D01*
X54415920Y-71795259D01*
X54971279Y-71996718D01*
X55561458Y-71970315D01*
X55984080Y-71795259D01*
X56064353Y-71543958D01*
X55200000Y-70679605D01*
X54335647Y-71543958D01*
X50778076Y-71543958D01*
X50790932Y-70271279D01*
X53703282Y-70271279D01*
X53729685Y-70861458D01*
X53904741Y-71284080D01*
X54156042Y-71364353D01*
X55020395Y-70500000D01*
X55379605Y-70500000D01*
X56243958Y-71364353D01*
X56495259Y-71284080D01*
X56696718Y-70728721D01*
X56670315Y-70138542D01*
X56654351Y-70100000D01*
X70705819Y-70100000D01*
X70705819Y-73300000D01*
X70766971Y-73624997D01*
X70959044Y-73923486D01*
X71252114Y-74123732D01*
X71600000Y-74194181D01*
X75000000Y-74194181D01*
X75324997Y-74133029D01*
X75623486Y-73940956D01*
X75823732Y-73647886D01*
X75894181Y-73300000D01*
X75894181Y-73233093D01*
X76822796Y-73233093D01*
X77001606Y-73665846D01*
X77332412Y-73997230D01*
X77764853Y-74176795D01*
X78233093Y-74177204D01*
X78354596Y-74127000D01*
X83144933Y-74127000D01*
X83264853Y-74176795D01*
X83733093Y-74177204D01*
X84165846Y-73998394D01*
X84497230Y-73667588D01*
X84676795Y-73235147D01*
X84677204Y-72766907D01*
X84498394Y-72334154D01*
X84167588Y-72002770D01*
X84055769Y-71956339D01*
X84276989Y-71864933D01*
X84763226Y-71379544D01*
X85026700Y-70745029D01*
X85027299Y-70057986D01*
X84764933Y-69423011D01*
X84279544Y-68936774D01*
X83645029Y-68673300D01*
X82957986Y-68672701D01*
X82323011Y-68935067D01*
X81836774Y-69420456D01*
X81573300Y-70054971D01*
X81572701Y-70742014D01*
X81835067Y-71376989D01*
X82320456Y-71863226D01*
X82343994Y-71873000D01*
X78355067Y-71873000D01*
X78235147Y-71823205D01*
X77766907Y-71822796D01*
X77334154Y-72001606D01*
X77002770Y-72332412D01*
X76823205Y-72764853D01*
X76822796Y-73233093D01*
X75894181Y-73233093D01*
X75894181Y-70100000D01*
X75833029Y-69775003D01*
X75640956Y-69476514D01*
X75347886Y-69276268D01*
X75000000Y-69205819D01*
X71600000Y-69205819D01*
X71275003Y-69266971D01*
X70976514Y-69459044D01*
X70776268Y-69752114D01*
X70705819Y-70100000D01*
X56654351Y-70100000D01*
X56495259Y-69715920D01*
X56243958Y-69635647D01*
X55379605Y-70500000D01*
X55020395Y-70500000D01*
X54156042Y-69635647D01*
X53904741Y-69715920D01*
X53703282Y-70271279D01*
X50790932Y-70271279D01*
X50799166Y-69456042D01*
X54335647Y-69456042D01*
X55200000Y-70320395D01*
X56064353Y-69456042D01*
X55984080Y-69204741D01*
X55428721Y-69003282D01*
X54838542Y-69029685D01*
X54415920Y-69204741D01*
X54335647Y-69456042D01*
X50799166Y-69456042D01*
X50832642Y-66142014D01*
X53472701Y-66142014D01*
X53735067Y-66776989D01*
X54220456Y-67263226D01*
X54854971Y-67526700D01*
X55542014Y-67527299D01*
X56176989Y-67264933D01*
X56450384Y-66992014D01*
X81572701Y-66992014D01*
X81835067Y-67626989D01*
X82320456Y-68113226D01*
X82954971Y-68376700D01*
X83642014Y-68377299D01*
X84276989Y-68114933D01*
X84763226Y-67629544D01*
X85026700Y-66995029D01*
X85027299Y-66307986D01*
X84764933Y-65673011D01*
X84279544Y-65186774D01*
X83645029Y-64923300D01*
X82957986Y-64922701D01*
X82323011Y-65185067D01*
X81836774Y-65670456D01*
X81573300Y-66304971D01*
X81572701Y-66992014D01*
X56450384Y-66992014D01*
X56663226Y-66779544D01*
X56926700Y-66145029D01*
X56927299Y-65457986D01*
X56664933Y-64823011D01*
X56179544Y-64336774D01*
X55545029Y-64073300D01*
X54857986Y-64072701D01*
X54223011Y-64335067D01*
X53736774Y-64820456D01*
X53473300Y-65454971D01*
X53472701Y-66142014D01*
X50832642Y-66142014D01*
X50880116Y-61442014D01*
X53472701Y-61442014D01*
X53735067Y-62076989D01*
X54220456Y-62563226D01*
X54854971Y-62826700D01*
X55542014Y-62827299D01*
X56176989Y-62564933D01*
X56663226Y-62079544D01*
X56926700Y-61445029D01*
X56927299Y-60757986D01*
X56664933Y-60123011D01*
X56542137Y-60000000D01*
X70705819Y-60000000D01*
X70705819Y-63200000D01*
X70766971Y-63524997D01*
X70959044Y-63823486D01*
X71252114Y-64023732D01*
X71600000Y-64094181D01*
X75000000Y-64094181D01*
X75324997Y-64033029D01*
X75623486Y-63840956D01*
X75823732Y-63547886D01*
X75885672Y-63242014D01*
X81572701Y-63242014D01*
X81835067Y-63876989D01*
X82320456Y-64363226D01*
X82954971Y-64626700D01*
X83642014Y-64627299D01*
X84276989Y-64364933D01*
X84392122Y-64250000D01*
X94005819Y-64250000D01*
X94005819Y-72750000D01*
X94066971Y-73074997D01*
X94259044Y-73373486D01*
X94552114Y-73573732D01*
X94900000Y-73644181D01*
X101300000Y-73644181D01*
X101624997Y-73583029D01*
X101923486Y-73390956D01*
X102123732Y-73097886D01*
X102194181Y-72750000D01*
X102194181Y-67945230D01*
X104016632Y-67945230D01*
X104339766Y-68727274D01*
X104937578Y-69326131D01*
X105719057Y-69650630D01*
X106565230Y-69651368D01*
X107347274Y-69328234D01*
X107744168Y-68932033D01*
X108137578Y-69326131D01*
X108919057Y-69650630D01*
X109765230Y-69651368D01*
X110547274Y-69328234D01*
X111146131Y-68730422D01*
X111470630Y-67948943D01*
X111471368Y-67102770D01*
X111148234Y-66320726D01*
X110550422Y-65721869D01*
X109768943Y-65397370D01*
X108922770Y-65396632D01*
X108140726Y-65719766D01*
X107743832Y-66115967D01*
X107350422Y-65721869D01*
X106568943Y-65397370D01*
X105722770Y-65396632D01*
X104940726Y-65719766D01*
X104341869Y-66317578D01*
X104017370Y-67099057D01*
X104016632Y-67945230D01*
X102194181Y-67945230D01*
X102194181Y-64250000D01*
X102133029Y-63925003D01*
X101940956Y-63626514D01*
X101647886Y-63426268D01*
X101300000Y-63355819D01*
X94900000Y-63355819D01*
X94575003Y-63416971D01*
X94276514Y-63609044D01*
X94076268Y-63902114D01*
X94005819Y-64250000D01*
X84392122Y-64250000D01*
X84763226Y-63879544D01*
X85026700Y-63245029D01*
X85027299Y-62557986D01*
X84764933Y-61923011D01*
X84279544Y-61436774D01*
X83645029Y-61173300D01*
X82957986Y-61172701D01*
X82323011Y-61435067D01*
X81836774Y-61920456D01*
X81573300Y-62554971D01*
X81572701Y-63242014D01*
X75885672Y-63242014D01*
X75894181Y-63200000D01*
X75894181Y-60890544D01*
X96622571Y-60890544D01*
X96998877Y-61801275D01*
X97695060Y-62498674D01*
X98605133Y-62876569D01*
X99590544Y-62877429D01*
X100501275Y-62501123D01*
X101198674Y-61804940D01*
X101576569Y-60894867D01*
X101576961Y-60445230D01*
X104016632Y-60445230D01*
X104339766Y-61227274D01*
X104937578Y-61826131D01*
X105719057Y-62150630D01*
X106565230Y-62151368D01*
X107347274Y-61828234D01*
X107744168Y-61432033D01*
X108137578Y-61826131D01*
X108919057Y-62150630D01*
X109765230Y-62151368D01*
X110547274Y-61828234D01*
X111146131Y-61230422D01*
X111470630Y-60448943D01*
X111471368Y-59602770D01*
X111148234Y-58820726D01*
X110550422Y-58221869D01*
X109768943Y-57897370D01*
X108922770Y-57896632D01*
X108140726Y-58219766D01*
X107743832Y-58615967D01*
X107350422Y-58221869D01*
X106568943Y-57897370D01*
X105722770Y-57896632D01*
X104940726Y-58219766D01*
X104341869Y-58817578D01*
X104017370Y-59599057D01*
X104016632Y-60445230D01*
X101576961Y-60445230D01*
X101577429Y-59909456D01*
X101201123Y-58998725D01*
X100504940Y-58301326D01*
X99594867Y-57923431D01*
X98609456Y-57922571D01*
X97698725Y-58298877D01*
X97001326Y-58995060D01*
X96623431Y-59905133D01*
X96622571Y-60890544D01*
X75894181Y-60890544D01*
X75894181Y-60000000D01*
X75833029Y-59675003D01*
X75640956Y-59376514D01*
X75347886Y-59176268D01*
X75000000Y-59105819D01*
X71600000Y-59105819D01*
X71275003Y-59166971D01*
X70976514Y-59359044D01*
X70776268Y-59652114D01*
X70705819Y-60000000D01*
X56542137Y-60000000D01*
X56179544Y-59636774D01*
X55545029Y-59373300D01*
X54857986Y-59372701D01*
X54223011Y-59635067D01*
X53736774Y-60120456D01*
X53473300Y-60754971D01*
X53472701Y-61442014D01*
X50880116Y-61442014D01*
X50924540Y-57043958D01*
X54435647Y-57043958D01*
X54515920Y-57295259D01*
X55071279Y-57496718D01*
X55661458Y-57470315D01*
X56084080Y-57295259D01*
X56164353Y-57043958D01*
X55300000Y-56179605D01*
X54435647Y-57043958D01*
X50924540Y-57043958D01*
X50937396Y-55771279D01*
X53803282Y-55771279D01*
X53829685Y-56361458D01*
X54004741Y-56784080D01*
X54256042Y-56864353D01*
X55120395Y-56000000D01*
X55479605Y-56000000D01*
X56343958Y-56864353D01*
X56595259Y-56784080D01*
X56796718Y-56228721D01*
X56770315Y-55638542D01*
X56595259Y-55215920D01*
X56343958Y-55135647D01*
X55479605Y-56000000D01*
X55120395Y-56000000D01*
X54256042Y-55135647D01*
X54004741Y-55215920D01*
X53803282Y-55771279D01*
X50937396Y-55771279D01*
X50945630Y-54956042D01*
X54435647Y-54956042D01*
X55300000Y-55820395D01*
X56164353Y-54956042D01*
X56084080Y-54704741D01*
X55528721Y-54503282D01*
X54938542Y-54529685D01*
X54515920Y-54704741D01*
X54435647Y-54956042D01*
X50945630Y-54956042D01*
X50963368Y-53200000D01*
X70705819Y-53200000D01*
X70705819Y-56400000D01*
X70766971Y-56724997D01*
X70959044Y-57023486D01*
X71252114Y-57223732D01*
X71600000Y-57294181D01*
X75000000Y-57294181D01*
X75324997Y-57233029D01*
X75623486Y-57040956D01*
X75823732Y-56747886D01*
X75894181Y-56400000D01*
X75894181Y-53842014D01*
X81572701Y-53842014D01*
X81835067Y-54476989D01*
X82320456Y-54963226D01*
X82954971Y-55226700D01*
X83642014Y-55227299D01*
X84276989Y-54964933D01*
X84763226Y-54479544D01*
X85026700Y-53845029D01*
X85027299Y-53157986D01*
X84764933Y-52523011D01*
X84279544Y-52036774D01*
X83645029Y-51773300D01*
X82957986Y-51772701D01*
X82323011Y-52035067D01*
X81836774Y-52520456D01*
X81573300Y-53154971D01*
X81572701Y-53842014D01*
X75894181Y-53842014D01*
X75894181Y-53200000D01*
X75833029Y-52875003D01*
X75640956Y-52576514D01*
X75347886Y-52376268D01*
X75000000Y-52305819D01*
X71600000Y-52305819D01*
X71275003Y-52366971D01*
X70976514Y-52559044D01*
X70776268Y-52852114D01*
X70705819Y-53200000D01*
X50963368Y-53200000D01*
X50979106Y-51642014D01*
X53572701Y-51642014D01*
X53835067Y-52276989D01*
X54320456Y-52763226D01*
X54954971Y-53026700D01*
X55642014Y-53027299D01*
X56276989Y-52764933D01*
X56763226Y-52279544D01*
X57026700Y-51645029D01*
X57027299Y-50957986D01*
X56764933Y-50323011D01*
X56375696Y-49933093D01*
X74822796Y-49933093D01*
X75001606Y-50365846D01*
X75332412Y-50697230D01*
X75764853Y-50876795D01*
X76233093Y-50877204D01*
X76233587Y-50877000D01*
X81984816Y-50877000D01*
X82320456Y-51213226D01*
X82954971Y-51476700D01*
X83642014Y-51477299D01*
X84276989Y-51214933D01*
X84763226Y-50729544D01*
X85026700Y-50095029D01*
X85027152Y-49576999D01*
X93164895Y-49576999D01*
X93201606Y-49665846D01*
X93532412Y-49997230D01*
X93964853Y-50176795D01*
X94433093Y-50177204D01*
X94865846Y-49998394D01*
X95197230Y-49667588D01*
X95205819Y-49646903D01*
X95205819Y-55141243D01*
X95067588Y-55002770D01*
X94748428Y-54870243D01*
X94731284Y-54858788D01*
X94711237Y-54854800D01*
X94635147Y-54823205D01*
X94552032Y-54823132D01*
X94300000Y-54773000D01*
X87355056Y-54773000D01*
X87235136Y-54723205D01*
X86766896Y-54722796D01*
X86334143Y-54901606D01*
X86002759Y-55232412D01*
X85823194Y-55664853D01*
X85822785Y-56133093D01*
X86001595Y-56565846D01*
X86332401Y-56897230D01*
X86764842Y-57076795D01*
X87233082Y-57077204D01*
X87354585Y-57027000D01*
X93804106Y-57027000D01*
X94164853Y-57176795D01*
X94633093Y-57177204D01*
X95065846Y-56998394D01*
X95223032Y-56841482D01*
X95266971Y-57074997D01*
X95459044Y-57373486D01*
X95752114Y-57573732D01*
X96100000Y-57644181D01*
X102500000Y-57644181D01*
X102824997Y-57583029D01*
X103123486Y-57390956D01*
X103323732Y-57097886D01*
X103394181Y-56750000D01*
X103394181Y-52945230D01*
X104016632Y-52945230D01*
X104339766Y-53727274D01*
X104937578Y-54326131D01*
X105719057Y-54650630D01*
X106565230Y-54651368D01*
X107347274Y-54328234D01*
X107744168Y-53932033D01*
X108137578Y-54326131D01*
X108919057Y-54650630D01*
X109765230Y-54651368D01*
X110547274Y-54328234D01*
X111146131Y-53730422D01*
X111470630Y-52948943D01*
X111471368Y-52102770D01*
X111148234Y-51320726D01*
X110550422Y-50721869D01*
X109768943Y-50397370D01*
X108922770Y-50396632D01*
X108140726Y-50719766D01*
X107743832Y-51115967D01*
X107350422Y-50721869D01*
X106568943Y-50397370D01*
X105722770Y-50396632D01*
X104940726Y-50719766D01*
X104341869Y-51317578D01*
X104017370Y-52099057D01*
X104016632Y-52945230D01*
X103394181Y-52945230D01*
X103394181Y-48250000D01*
X103333029Y-47925003D01*
X103140956Y-47626514D01*
X102847886Y-47426268D01*
X102500000Y-47355819D01*
X96100000Y-47355819D01*
X95987457Y-47376995D01*
X96197230Y-47167588D01*
X96376795Y-46735147D01*
X96377204Y-46266907D01*
X96198394Y-45834154D01*
X95867588Y-45502770D01*
X95729017Y-45445230D01*
X104016632Y-45445230D01*
X104339766Y-46227274D01*
X104937578Y-46826131D01*
X105719057Y-47150630D01*
X106565230Y-47151368D01*
X107347274Y-46828234D01*
X107744168Y-46432033D01*
X108137578Y-46826131D01*
X108919057Y-47150630D01*
X109765230Y-47151368D01*
X110547274Y-46828234D01*
X111146131Y-46230422D01*
X111470630Y-45448943D01*
X111471368Y-44602770D01*
X111148234Y-43820726D01*
X110550422Y-43221869D01*
X109768943Y-42897370D01*
X108922770Y-42896632D01*
X108140726Y-43219766D01*
X107743832Y-43615967D01*
X107350422Y-43221869D01*
X106568943Y-42897370D01*
X105722770Y-42896632D01*
X104940726Y-43219766D01*
X104341869Y-43817578D01*
X104017370Y-44599057D01*
X104016632Y-45445230D01*
X95729017Y-45445230D01*
X95435147Y-45323205D01*
X94966907Y-45322796D01*
X94845404Y-45373000D01*
X86600000Y-45373000D01*
X86240270Y-45444555D01*
X86168715Y-45458788D01*
X85803090Y-45703091D01*
X85654161Y-45852020D01*
X85534154Y-45901606D01*
X85202770Y-46232412D01*
X85023205Y-46664853D01*
X85022796Y-47133093D01*
X85101264Y-47322999D01*
X84419171Y-47322999D01*
X84763226Y-46979544D01*
X85026700Y-46345029D01*
X85027299Y-45657986D01*
X84764933Y-45023011D01*
X84279544Y-44536774D01*
X83645029Y-44273300D01*
X82957986Y-44272701D01*
X82323011Y-44535067D01*
X81836774Y-45020456D01*
X81573300Y-45654971D01*
X81572701Y-46342014D01*
X81835067Y-46976989D01*
X82180474Y-47322999D01*
X77405068Y-47322999D01*
X77285148Y-47273204D01*
X76816908Y-47272795D01*
X76384155Y-47451605D01*
X76052771Y-47782411D01*
X75873206Y-48214852D01*
X75872937Y-48522889D01*
X75766907Y-48522796D01*
X75334154Y-48701606D01*
X75002770Y-49032412D01*
X74823205Y-49464853D01*
X74822796Y-49933093D01*
X56375696Y-49933093D01*
X56279544Y-49836774D01*
X55645029Y-49573300D01*
X54957986Y-49572701D01*
X54323011Y-49835067D01*
X53836774Y-50320456D01*
X53573300Y-50954971D01*
X53572701Y-51642014D01*
X50979106Y-51642014D01*
X51026581Y-46942014D01*
X53572701Y-46942014D01*
X53835067Y-47576989D01*
X54320456Y-48063226D01*
X54954971Y-48326700D01*
X55642014Y-48327299D01*
X56276989Y-48064933D01*
X56763226Y-47579544D01*
X57026700Y-46945029D01*
X57027299Y-46257986D01*
X56764933Y-45623011D01*
X56279544Y-45136774D01*
X55645029Y-44873300D01*
X54957986Y-44872701D01*
X54323011Y-45135067D01*
X53836774Y-45620456D01*
X53573300Y-46254971D01*
X53572701Y-46942014D01*
X51026581Y-46942014D01*
X51076597Y-41990544D01*
X52922571Y-41990544D01*
X53298877Y-42901275D01*
X53995060Y-43598674D01*
X54905133Y-43976569D01*
X55890544Y-43977429D01*
X56801275Y-43601123D01*
X57303273Y-43100000D01*
X70705819Y-43100000D01*
X70705819Y-46300000D01*
X70766971Y-46624997D01*
X70959044Y-46923486D01*
X71252114Y-47123732D01*
X71600000Y-47194181D01*
X75000000Y-47194181D01*
X75324997Y-47133029D01*
X75623486Y-46940956D01*
X75823732Y-46647886D01*
X75894181Y-46300000D01*
X75894181Y-43943958D01*
X89635647Y-43943958D01*
X89715920Y-44195259D01*
X90271279Y-44396718D01*
X90861458Y-44370315D01*
X91284080Y-44195259D01*
X91364353Y-43943958D01*
X90500000Y-43079605D01*
X89635647Y-43943958D01*
X75894181Y-43943958D01*
X75894181Y-43100000D01*
X75833029Y-42775003D01*
X75766285Y-42671279D01*
X89003282Y-42671279D01*
X89029685Y-43261458D01*
X89204741Y-43684080D01*
X89456042Y-43764353D01*
X90320395Y-42900000D01*
X90679605Y-42900000D01*
X91543958Y-43764353D01*
X91795259Y-43684080D01*
X91955620Y-43242014D01*
X93472701Y-43242014D01*
X93735067Y-43876989D01*
X94220456Y-44363226D01*
X94854971Y-44626700D01*
X95542014Y-44627299D01*
X96176989Y-44364933D01*
X96663226Y-43879544D01*
X96926700Y-43245029D01*
X96926702Y-43242014D01*
X98172701Y-43242014D01*
X98435067Y-43876989D01*
X98920456Y-44363226D01*
X99554971Y-44626700D01*
X100242014Y-44627299D01*
X100876989Y-44364933D01*
X101363226Y-43879544D01*
X101626700Y-43245029D01*
X101627299Y-42557986D01*
X101364933Y-41923011D01*
X100879544Y-41436774D01*
X100245029Y-41173300D01*
X99557986Y-41172701D01*
X98923011Y-41435067D01*
X98436774Y-41920456D01*
X98173300Y-42554971D01*
X98172701Y-43242014D01*
X96926702Y-43242014D01*
X96927299Y-42557986D01*
X96664933Y-41923011D01*
X96179544Y-41436774D01*
X95545029Y-41173300D01*
X94857986Y-41172701D01*
X94223011Y-41435067D01*
X93736774Y-41920456D01*
X93473300Y-42554971D01*
X93472701Y-43242014D01*
X91955620Y-43242014D01*
X91996718Y-43128721D01*
X91970315Y-42538542D01*
X91795259Y-42115920D01*
X91543958Y-42035647D01*
X90679605Y-42900000D01*
X90320395Y-42900000D01*
X89456042Y-42035647D01*
X89204741Y-42115920D01*
X89003282Y-42671279D01*
X75766285Y-42671279D01*
X75640956Y-42476514D01*
X75347886Y-42276268D01*
X75000000Y-42205819D01*
X71600000Y-42205819D01*
X71275003Y-42266971D01*
X70976514Y-42459044D01*
X70776268Y-42752114D01*
X70705819Y-43100000D01*
X57303273Y-43100000D01*
X57498674Y-42904940D01*
X57876569Y-41994867D01*
X57876690Y-41856042D01*
X89635647Y-41856042D01*
X90500000Y-42720395D01*
X91364353Y-41856042D01*
X91284080Y-41604741D01*
X90728721Y-41403282D01*
X90138542Y-41429685D01*
X89715920Y-41604741D01*
X89635647Y-41856042D01*
X57876690Y-41856042D01*
X57877429Y-41009456D01*
X57501123Y-40098725D01*
X56804940Y-39401326D01*
X55894867Y-39023431D01*
X54909456Y-39022571D01*
X53998725Y-39398877D01*
X53301326Y-40095060D01*
X52923431Y-41005133D01*
X52922571Y-41990544D01*
X51076597Y-41990544D01*
X51117391Y-37952000D01*
X120727808Y-37952000D01*
X120036420Y-38642182D01*
G36*
X76993748Y-126185858D02*
X76979605Y-126200000D01*
X76993748Y-126214143D01*
X76814143Y-126393748D01*
X76800000Y-126379605D01*
X76785858Y-126393748D01*
X76606253Y-126214143D01*
X76620395Y-126200000D01*
X76606253Y-126185858D01*
X76785858Y-126006253D01*
X76800000Y-126020395D01*
X76814143Y-126006253D01*
X76993748Y-126185858D01*
X76993748Y-126185858D01*
G37*
X76993748Y-126185858D02*
X76979605Y-126200000D01*
X76993748Y-126214143D01*
X76814143Y-126393748D01*
X76800000Y-126379605D01*
X76785858Y-126393748D01*
X76606253Y-126214143D01*
X76620395Y-126200000D01*
X76606253Y-126185858D01*
X76785858Y-126006253D01*
X76800000Y-126020395D01*
X76814143Y-126006253D01*
X76993748Y-126185858D01*
G36*
X71993748Y-126185858D02*
X71979605Y-126200000D01*
X71993748Y-126214143D01*
X71814143Y-126393748D01*
X71800000Y-126379605D01*
X71785858Y-126393748D01*
X71606253Y-126214143D01*
X71620395Y-126200000D01*
X71606253Y-126185858D01*
X71785858Y-126006253D01*
X71800000Y-126020395D01*
X71814143Y-126006253D01*
X71993748Y-126185858D01*
X71993748Y-126185858D01*
G37*
X71993748Y-126185858D02*
X71979605Y-126200000D01*
X71993748Y-126214143D01*
X71814143Y-126393748D01*
X71800000Y-126379605D01*
X71785858Y-126393748D01*
X71606253Y-126214143D01*
X71620395Y-126200000D01*
X71606253Y-126185858D01*
X71785858Y-126006253D01*
X71800000Y-126020395D01*
X71814143Y-126006253D01*
X71993748Y-126185858D01*
G36*
X64493748Y-126185858D02*
X64479605Y-126200000D01*
X64493748Y-126214143D01*
X64314143Y-126393748D01*
X64300000Y-126379605D01*
X64285858Y-126393748D01*
X64106253Y-126214143D01*
X64120395Y-126200000D01*
X64106253Y-126185858D01*
X64285858Y-126006253D01*
X64300000Y-126020395D01*
X64314143Y-126006253D01*
X64493748Y-126185858D01*
X64493748Y-126185858D01*
G37*
X64493748Y-126185858D02*
X64479605Y-126200000D01*
X64493748Y-126214143D01*
X64314143Y-126393748D01*
X64300000Y-126379605D01*
X64285858Y-126393748D01*
X64106253Y-126214143D01*
X64120395Y-126200000D01*
X64106253Y-126185858D01*
X64285858Y-126006253D01*
X64300000Y-126020395D01*
X64314143Y-126006253D01*
X64493748Y-126185858D01*
M02*
