G04 #@! TF.FileFunction,Legend,Bot*
%FSLAX46Y46*%
G04 Gerber Fmt 4.6, Leading zero omitted, Abs format (unit mm)*
G04 Created by KiCad (PCBNEW 4.0.2+dfsg1-stable) date Sat 10 Jun 2017 09:37:02 PM MDT*
%MOMM*%
G01*
G04 APERTURE LIST*
%ADD10C,0.100000*%
%ADD11C,0.203200*%
%ADD12C,0.101600*%
G04 APERTURE END LIST*
D10*
D11*
X71603780Y-100704740D02*
X71603780Y-107710060D01*
X71603780Y-107710060D02*
X64598460Y-107710060D01*
X64598460Y-107710060D02*
X64598460Y-101057800D01*
X64951520Y-100704740D02*
X71603780Y-100704740D01*
X64951520Y-100704740D02*
X64598460Y-101057800D01*
D12*
X64551283Y-100524400D02*
G75*
G03X64551283Y-100524400I-107763J0D01*
G01*
D11*
X84650000Y-130375000D02*
X85285000Y-131010000D01*
X86555000Y-131010000D02*
X87190000Y-130375000D01*
X87190000Y-130375000D02*
X87825000Y-131010000D01*
X89095000Y-131010000D02*
X89730000Y-130375000D01*
X89730000Y-130375000D02*
X90365000Y-131010000D01*
X91635000Y-131010000D02*
X92270000Y-130375000D01*
X84650000Y-130375000D02*
X84650000Y-126565000D01*
X84650000Y-126565000D02*
X85285000Y-125930000D01*
X85285000Y-125930000D02*
X86555000Y-125930000D01*
X86555000Y-125930000D02*
X87190000Y-126565000D01*
X87190000Y-126565000D02*
X87825000Y-125930000D01*
X87825000Y-125930000D02*
X89095000Y-125930000D01*
X89095000Y-125930000D02*
X89730000Y-126565000D01*
X89730000Y-126565000D02*
X90365000Y-125930000D01*
X90365000Y-125930000D02*
X91635000Y-125930000D01*
X91635000Y-125930000D02*
X92270000Y-126565000D01*
X87190000Y-126565000D02*
X87190000Y-130375000D01*
X89730000Y-126565000D02*
X89730000Y-130375000D01*
X92270000Y-126565000D02*
X92270000Y-130375000D01*
X90365000Y-131010000D02*
X91635000Y-131010000D01*
X87825000Y-131010000D02*
X89095000Y-131010000D01*
X85285000Y-131010000D02*
X86555000Y-131010000D01*
X86555000Y-131342740D02*
X85285000Y-131342740D01*
X54030000Y-91415000D02*
X54030000Y-90145000D01*
X54030000Y-90145000D02*
X54665000Y-89510000D01*
X55935000Y-89510000D02*
X56570000Y-90145000D01*
X54665000Y-94590000D02*
X54030000Y-93955000D01*
X54030000Y-93955000D02*
X54030000Y-92685000D01*
X54030000Y-92685000D02*
X54665000Y-92050000D01*
X55935000Y-92050000D02*
X56570000Y-92685000D01*
X56570000Y-92685000D02*
X56570000Y-93955000D01*
X56570000Y-93955000D02*
X55935000Y-94590000D01*
X54030000Y-91415000D02*
X54665000Y-92050000D01*
X55935000Y-92050000D02*
X56570000Y-91415000D01*
X56570000Y-90145000D02*
X56570000Y-91415000D01*
X54030000Y-99035000D02*
X54030000Y-97765000D01*
X54030000Y-97765000D02*
X54665000Y-97130000D01*
X55935000Y-97130000D02*
X56570000Y-97765000D01*
X54665000Y-97130000D02*
X54030000Y-96495000D01*
X54030000Y-96495000D02*
X54030000Y-95225000D01*
X54030000Y-95225000D02*
X54665000Y-94590000D01*
X55935000Y-94590000D02*
X56570000Y-95225000D01*
X56570000Y-95225000D02*
X56570000Y-96495000D01*
X56570000Y-96495000D02*
X55935000Y-97130000D01*
X54665000Y-99670000D02*
X55935000Y-99670000D01*
X54030000Y-99035000D02*
X54665000Y-99670000D01*
X55935000Y-99670000D02*
X56570000Y-99035000D01*
X56570000Y-97765000D02*
X56570000Y-99035000D01*
X54665000Y-89510000D02*
X55935000Y-89510000D01*
M02*
