M48
;DRILL file {KiCad 4.0.2+dfsg1-stable} date Tue 11 Jul 2017 10:22:19 PM MDT
;FORMAT={2:4/ absolute / inch / suppress leading zeros}
FMAT,2
INCH,TZ
T1C0.016
T2C0.040
T3C0.043
T4C0.047
T5C0.049
T6C0.059
T7C0.065
T8C0.071
T9C0.098
T10C0.104
T11C0.106
T12C0.118
%
G90
G05
M72
T1
X19980Y-45413
X20256Y-45787
X20551Y-31693
X20551Y-46181
X20846Y-46476
X20846Y-46476
X20866Y-33071
X21260Y-34252
X21260Y-46850
X22835Y-50394
X23346Y-47480
X23621Y-41736
X23720Y-41437
X24543Y-35094
X24606Y-40236
X25118Y-47480
X25197Y-34646
X25591Y-40551
X25709Y-38346
X25709Y-46850
X26024Y-46476
X26024Y-38740
X26339Y-37953
X26339Y-46476
X26654Y-38819
X26654Y-46180
X26968Y-45787
X26969Y-39764
X27087Y-36732
X27126Y-37864
X27283Y-45433
X27421Y-35094
X27559Y-41535
X27598Y-45236
X27913Y-44921
X27953Y-37795
X27953Y-40945
X27953Y-41535
X28346Y-35433
X28576Y-39396
X28937Y-42126
X29449Y-42441
X29528Y-37244
X29921Y-19567
X29921Y-41831
X30315Y-46457
X30335Y-19075
X30709Y-28740
X30709Y-41831
X31102Y-39370
X31181Y-30394
X32087Y-42126
X32087Y-51969
X32283Y-41339
X32874Y-28740
X33071Y-39764
X33189Y-44921
X33425Y-34980
X33445Y-33701
X33465Y-31890
X33760Y-33701
X33898Y-37244
X33937Y-18465
X34134Y-32638
X34252Y-22008
X34370Y-38346
X34370Y-40236
X34843Y-45236
X34843Y-51969
X35827Y-39291
X35945Y-43701
X36736Y-33418
X36772Y-30630
X37087Y-19291
X37165Y-22047
X37474Y-35827
X37559Y-25492
X37559Y-25846
X37559Y-28091
X37559Y-28445
X37559Y-30669
X37559Y-31024
X37559Y-33268
X37559Y-33622
X37913Y-25492
X37913Y-25846
X37913Y-28091
X37913Y-28445
X37913Y-30669
X37913Y-31024
X37913Y-33268
X37913Y-33622
X38031Y-19193
X38031Y-19547
X38031Y-21791
X38031Y-22146
X38268Y-25492
X38268Y-25846
X38268Y-28091
X38268Y-28445
X38268Y-30669
X38268Y-31024
X38268Y-33268
X38268Y-33622
X38307Y-39173
X38386Y-19193
X38386Y-19547
X38386Y-21791
X38386Y-22146
X38386Y-41929
X38622Y-25492
X38622Y-25846
X38622Y-28091
X38622Y-28445
X38622Y-30669
X38622Y-31024
X38622Y-33268
X38622Y-33622
X38740Y-19193
X38740Y-19547
X38740Y-21791
X38740Y-22146
X38976Y-25492
X38976Y-25846
X38976Y-28091
X38976Y-28445
X38976Y-30669
X38976Y-31024
X38976Y-33268
X38976Y-33622
X39094Y-19193
X39094Y-19547
X39094Y-21791
X39094Y-22146
X39331Y-25492
X39331Y-25846
X39331Y-28091
X39331Y-28445
X39331Y-30669
X39331Y-31024
X39331Y-33268
X39331Y-33622
X39370Y-26201
X39370Y-26555
X39370Y-26969
X39370Y-27382
X39370Y-27736
X39370Y-31378
X39370Y-31732
X39370Y-32146
X39370Y-32559
X39370Y-32913
X39370Y-35433
X39449Y-19193
X39449Y-19547
X39449Y-21791
X39449Y-22146
X39685Y-25492
X39685Y-25846
X39685Y-26201
X39685Y-26555
X39685Y-26969
X39685Y-27382
X39685Y-27736
X39685Y-28051
X39685Y-28445
X39685Y-30669
X39685Y-31024
X39685Y-31378
X39685Y-31732
X39685Y-32146
X39685Y-32559
X39685Y-32913
X39685Y-33228
X39685Y-33622
X39803Y-19193
X39803Y-19547
X39803Y-21791
X39803Y-22146
X39843Y-19902
X39843Y-20256
X39843Y-20669
X39843Y-21083
X39843Y-21437
X39882Y-34409
X40058Y-42717
X40157Y-19193
X40157Y-19547
X40157Y-19902
X40157Y-20256
X40157Y-20669
X40157Y-21083
X40157Y-21437
X40157Y-21752
X40157Y-22146
X40157Y-35827
X46181Y-34409
T2
X21772Y-35740
X21772Y-36740
X21772Y-37740
X21772Y-38740
X33827Y-50079
X33827Y-51079
X34827Y-50079
X34827Y-51079
X35827Y-50079
X35827Y-51079
T3
X23346Y-49685
X24331Y-49685
X25315Y-49685
X26299Y-49685
X27283Y-49685
X28268Y-49685
X29252Y-49685
X30236Y-49685
X31220Y-49685
T4
X37008Y-15748
X37008Y-17717
X39370Y-15748
X39370Y-17717
T5
X32795Y-18110
X32795Y-19587
X32795Y-21063
X32795Y-24764
X32795Y-26240
X32795Y-27717
T6
X21732Y-24055
X21732Y-25906
X21732Y-27756
X21772Y-18346
X21772Y-20197
X21772Y-22047
X21772Y-29843
X21772Y-31693
X21772Y-33543
T7
X43740Y-37992
X43740Y-41614
T8
X41789Y-17726
X41789Y-20679
X41789Y-23631
X41789Y-26584
X41789Y-29537
X41789Y-32490
X41789Y-47224
X41789Y-50176
X43049Y-17726
X43049Y-20679
X43049Y-23631
X43049Y-26584
X43049Y-29537
X43049Y-32490
X43049Y-47224
X43049Y-50176
T10
X47756Y-37992
X47756Y-41614
T11
X20984Y-52205
X21811Y-16339
X39016Y-23780
X39764Y-52126
T12
X48206Y-45357
X48206Y-52050
X48218Y-15856
X48218Y-34360
T9
X28819Y-17598G85X28898Y-17598
G05
X28819Y-21575G85X28898Y-21575
G05
X28819Y-24252G85X28898Y-24252
G05
X28819Y-28228G85X28898Y-28228
G05
T0
M30
