G04 #@! TF.FileFunction,Paste,Top*
%FSLAX46Y46*%
G04 Gerber Fmt 4.6, Leading zero omitted, Abs format (unit mm)*
G04 Created by KiCad (PCBNEW 4.0.2+dfsg1-stable) date Sat 10 Jun 2017 09:46:09 PM MDT*
%MOMM*%
G01*
G04 APERTURE LIST*
%ADD10C,0.100000*%
%ADD11R,0.750000X0.800000*%
%ADD12R,0.800000X0.750000*%
%ADD13R,0.797560X0.797560*%
%ADD14R,1.270000X0.558800*%
%ADD15R,0.558800X1.270000*%
%ADD16C,1.879600*%
%ADD17R,1.879600X1.879600*%
%ADD18R,0.400000X0.600000*%
%ADD19R,0.600000X0.400000*%
%ADD20R,0.650000X1.060000*%
%ADD21R,0.600000X0.900000*%
%ADD22R,0.900000X0.600000*%
%ADD23R,1.050000X0.600000*%
%ADD24C,0.998220*%
G04 APERTURE END LIST*
D10*
D11*
X74800000Y-106200000D03*
X74800000Y-104700000D03*
D12*
X68800000Y-95300000D03*
X67300000Y-95300000D03*
D11*
X61300000Y-103750000D03*
X61300000Y-105250000D03*
D12*
X94550000Y-101500000D03*
X96050000Y-101500000D03*
X93800000Y-112500000D03*
X95300000Y-112500000D03*
D13*
X89920878Y-94612208D03*
X91419478Y-94612208D03*
X89920878Y-96612208D03*
X91419478Y-96612208D03*
X89920878Y-98612208D03*
X91419478Y-98612208D03*
X90949300Y-47900000D03*
X89450700Y-47900000D03*
X61300000Y-84100000D03*
X61300000Y-85598600D03*
D14*
X63808520Y-101408320D03*
X63808520Y-102208420D03*
X63808520Y-103008520D03*
X63808520Y-103808620D03*
X63808520Y-104606180D03*
X63808520Y-105406280D03*
X63808520Y-106206380D03*
X63808520Y-107006480D03*
D15*
X65302040Y-108500000D03*
X66102140Y-108500000D03*
X66902240Y-108500000D03*
X67702340Y-108500000D03*
X68499900Y-108500000D03*
X69300000Y-108500000D03*
X70100100Y-108500000D03*
X70900200Y-108500000D03*
D14*
X72393720Y-107006480D03*
X72393720Y-106206380D03*
X72393720Y-105406280D03*
X72393720Y-104606180D03*
X72393720Y-103808620D03*
X72393720Y-103008520D03*
X72393720Y-102208420D03*
X72393720Y-101408320D03*
D15*
X70900200Y-99914800D03*
X70100100Y-99914800D03*
X69300000Y-99914800D03*
X68499900Y-99914800D03*
X67702340Y-99914800D03*
X66902240Y-99914800D03*
X66102140Y-99914800D03*
X65302040Y-99914800D03*
D16*
X85920000Y-129740000D03*
X85920000Y-127200000D03*
X88460000Y-129740000D03*
X88460000Y-127200000D03*
X91000000Y-129740000D03*
X91000000Y-127200000D03*
D17*
X55300000Y-98400000D03*
D16*
X55300000Y-95860000D03*
X55300000Y-93320000D03*
X55300000Y-90780000D03*
D18*
X101300000Y-88500000D03*
X102200000Y-88500000D03*
X102200000Y-90000000D03*
X101300000Y-90000000D03*
D19*
X91300000Y-108050000D03*
X91300000Y-108950000D03*
D18*
X67700000Y-97400000D03*
X68600000Y-97400000D03*
X87319478Y-94612208D03*
X88219478Y-94612208D03*
X87319478Y-96612208D03*
X88219478Y-96612208D03*
X87319478Y-98612208D03*
X88219478Y-98612208D03*
X94200000Y-47900000D03*
X93300000Y-47900000D03*
D19*
X61300000Y-81200000D03*
X61300000Y-82100000D03*
D18*
X84850000Y-79500000D03*
X85750000Y-79500000D03*
X84850000Y-84500000D03*
X85750000Y-84500000D03*
X84850000Y-87900000D03*
X85750000Y-87900000D03*
X85750000Y-78000000D03*
X84850000Y-78000000D03*
X85750000Y-82950000D03*
X84850000Y-82950000D03*
X85750000Y-86400000D03*
X84850000Y-86400000D03*
D19*
X87300000Y-42400000D03*
X87300000Y-41500000D03*
D18*
X81300000Y-77200000D03*
X80400000Y-77200000D03*
D20*
X95166000Y-106700000D03*
X94216000Y-106700000D03*
X93266000Y-106700000D03*
X93266000Y-108900000D03*
X95166000Y-108900000D03*
D21*
X97500000Y-51350000D03*
X96650000Y-51350000D03*
X98350000Y-51350000D03*
X97500000Y-53650000D03*
X96650000Y-53650000D03*
X98350000Y-53650000D03*
X98350000Y-52500000D03*
X96650000Y-52500000D03*
D22*
X100200000Y-50625000D03*
X100200000Y-54375000D03*
X100200000Y-51900000D03*
D23*
X94475000Y-51865000D03*
X94475000Y-50595000D03*
X94475000Y-53135000D03*
X94475000Y-54405000D03*
D22*
X100200000Y-53100000D03*
D21*
X97500000Y-52500000D03*
X96300000Y-67350000D03*
X95450000Y-67350000D03*
X97150000Y-67350000D03*
X96300000Y-69650000D03*
X95450000Y-69650000D03*
X97150000Y-69650000D03*
X97150000Y-68500000D03*
X95450000Y-68500000D03*
D22*
X99000000Y-66625000D03*
X99000000Y-70375000D03*
X99000000Y-67900000D03*
D23*
X93275000Y-67865000D03*
X93275000Y-66595000D03*
X93275000Y-69135000D03*
X93275000Y-70405000D03*
D22*
X99000000Y-69100000D03*
D21*
X96300000Y-68500000D03*
X96300000Y-80500000D03*
X95450000Y-80500000D03*
X97150000Y-80500000D03*
X96300000Y-82800000D03*
X95450000Y-82800000D03*
X97150000Y-82800000D03*
X97150000Y-81650000D03*
X95450000Y-81650000D03*
D22*
X99000000Y-79775000D03*
X99000000Y-83525000D03*
X99000000Y-81050000D03*
D23*
X93275000Y-81015000D03*
X93275000Y-79745000D03*
X93275000Y-82285000D03*
X93275000Y-83555000D03*
D22*
X99000000Y-82250000D03*
D21*
X96300000Y-81650000D03*
D24*
X100700000Y-125700000D03*
X53000000Y-128200000D03*
X73000000Y-40000000D03*
M02*
